<svg xmlns="http://www.w3.org/2000/svg" width="52" height="52" viewBox="0 0 52 52">
  <g id="checkmark" transform="translate(-9.4 -9.4)">
    <path id="Compound_Path" data-name="Compound Path" d="M35.4,9.4a26,26,0,1,0,26,26,26,26,0,0,0-26-26Zm0,48.158A22.158,22.158,0,1,1,57.558,35.4,22.158,22.158,0,0,1,35.4,57.558Z" fill="#1ed176"/>
    <path id="Path" d="M52.315,37.423,40.263,48.834,34.75,43.193a1.927,1.927,0,0,0-2.757,2.693l6.86,6.988a1.731,1.731,0,0,0,1.346.577,2.18,2.18,0,0,0,1.346-.513l13.4-12.694a1.923,1.923,0,0,0,.128-2.693A1.987,1.987,0,0,0,52.315,37.423Z" transform="translate(-7.941 -9.908)" fill="#1ed176"/>
  </g>
</svg>
