<svg height='100px' width='100px'  fill="#333333" xmlns="http://www.w3.org/2000/svg" data-name="Layer 1" viewBox="0 0 100 100" x="0px" y="0px"><title>grapes</title><path d="M85.9251,36.69663c-2.509-.25091-15.29486,6.20569-19.95514,7.3866.05035-6.36133-2.52875-6.07471-6.3349-14.42535a6.3592,6.3592,0,0,0,4.78973.41168c3.53284-1.12329,7.33344-8.90717,7.23871-12.88343a.42468.42468,0,0,0-.64178-.41125c-1.61933.76361-3.87061,3.72028-3.75165,2.3999.05743-.63769.88806-.75415.77978-3.40674-.15832-3.88214-1.536-5.82708-2.74963-6.34369-.55444-.236-2.72156,1.57612-4.186,4.13971a1.2,1.2,0,0,1-1.02746.63367c-.32678-.00232-.61475-.12891-.58624-.511l.10211-1.36547a3.37766,3.37766,0,0,0-.15973-1.35816,5.59733,5.59733,0,0,0-1.8714-2.59943c-.24-.13732-.47833-.27368-.71838-.41107L50.24187,5l-3.692,6.2287c-.11663.25073-.23248.49975-.34906.75048a5.5973,5.5973,0,0,0-.02649,3.20288,3.37652,3.37652,0,0,0,.654,1.201l.87194,1.05573c.244.29553.082.56518-.18335.7558a1.20009,1.20009,0,0,1-1.20483.07611c-2.676-1.24707-5.49176-1.47486-5.808-.96192-.69239,1.12268-.69385,3.50611,1.419,6.76679,1.44354,2.228,2.18891,1.84338,2.60413,2.33075.85962,1.00921-2.68579-.10425-4.44873.20758a.42465.42465,0,0,0-.28644.70636c2.21912,3.30078,9.8172,7.4602,13.35,6.33685a6.58553,6.58553,0,0,0,3.97369-3.69c4.67261,9.0658,6.29193,12.85,4.04907,15.82214-.33093.4386-.82971,1.63928,1.11664,2.08344,6.78766,1.54913,18.93616-3.08667,25.834-5.981C90.48277,40.89841,87.52843,36.857,85.9251,36.69663Z"></path><circle cx="56.10219" cy="59.83262" r="9.30372"></circle><path d="M24.12438,81.87547a11.15581,11.15581,0,0,1-7.88929-3.26764,11.29386,11.29386,0,0,1-.76782-.8498A9.301,9.301,0,1,0,28.24565,90.53526a11.28291,11.28291,0,0,1-.854-.77094A11.0982,11.0982,0,0,1,24.12438,81.87547Z"></path><path d="M30.73253,77.26737A9.24663,9.24663,0,0,0,33.20012,72.822c-.0603-.05768-.12518-.10748-.18445-.16675a11.11593,11.11593,0,0,1-3.21411-6.85809,11.23112,11.23112,0,0,1-8.26239-3.26251c-.19079-.1908-.36255-.39313-.53668-.59394a9.30138,9.30138,0,1,0,9.73,15.32666Z"></path><path d="M40.21874,75.8961A11.16087,11.16087,0,0,1,34.80449,74.108a11.10806,11.10806,0,0,1-8.79132,7.61,9.29348,9.29348,0,0,0,18.043,3.2768c-.19989-.17358-.40137-.34448-.59143-.53449A11.18924,11.18924,0,0,1,40.21874,75.8961Z"></path><path d="M29.78026,63.90372a11.11391,11.11391,0,0,1,6.31708-9.25891,11.22145,11.22145,0,0,1-1.01013-4.70575,11.12834,11.12834,0,0,1-7.9665-3.24981q-.404-.404-.75756-.83838a9.29223,9.29223,0,0,0,3.41711,18.05285Z"></path><path d="M39.69933,43.42979A9.2909,9.2909,0,0,0,44.938,59.20487,11.13081,11.13081,0,0,1,55.47447,48.6685a9.29088,9.29088,0,0,0-15.77514-5.23871Z"></path><path d="M56.0576,71.02457a11.21212,11.21212,0,0,1-5.12982-1.26049,11.09342,11.09342,0,0,1-8.81512,6.10015,9.29273,9.29273,0,0,0,18.036,3.7721,11.28909,11.28909,0,0,1-.83838-.75757A11.1284,11.1284,0,0,1,56.0576,71.02457Z"></path><path d="M67.13646,61.66074A11.12169,11.12169,0,0,1,57.93028,70.867a9.30379,9.30379,0,1,0,9.20618-9.20624Z"></path><path d="M44.66594,61.08085a11.09005,11.09005,0,0,1-7.64569-4.78034,9.306,9.306,0,1,0,12.306,12.43439,10.95866,10.95866,0,0,1-4.338-7.6073Z"></path><path d="M35.26061,48.06309a11.13614,11.13614,0,0,1,9.07208-9.072,9.30374,9.30374,0,1,0-9.07208,9.072Z"></path></svg>