<?xml version="1.0" encoding="utf-8"?>
<!-- Generator: Adobe Illustrator 19.2.0, SVG Export Plug-In . SVG Version: 6.00 Build 0)  -->
<svg version="1.1" id="Layer_1" xmlns="http://www.w3.org/2000/svg" xmlns:xlink="http://www.w3.org/1999/xlink" x="0px" y="0px"
	 viewBox="0 0 50 50" style="enable-background:new 0 0 50 50;" xml:space="preserve">
<style type="text/css">
	
</style>
<path class="st0" d="M46.7,32.6V45c-6.4,2.4-13.9,4-21.7,4c-8,0-15.3-1.5-21.7-4V32.6c6,3.1,13.5,4.9,21.7,4.9
	C33.2,37.5,40.7,35.7,46.7,32.6 M25,26.2c-10.2,0-18.6-3.1-21.7-7.1v8.4c5.3,3.3,13.1,5.5,21.7,5.5c8.6,0,16.4-2,21.7-5.3v-8.4
	C43.6,23.1,35.2,26.2,25,26.2 M25,1C16.2,1,8.4,3.2,3.3,6.8v5.8C6.4,8.3,14.8,5.4,25,5.4c4.4,0,8.6,0.7,12.2,1.5L25,14.3
	c-0.7-0.4-2.9-1.5-5.8-2.9l-4.6,2.7L25,19.6L42.5,9.2c1.8,1.1,3.3,2.2,4.2,3.3V6.8C41.6,3.2,33.8,1,25,1"/>
</svg>
