<svg xmlns="http://www.w3.org/2000/svg" width="15.696" height="21" viewBox="0 0 15.696 21">
  <g id="noun_Location_2750188" transform="translate(-15.7 -5.8)">
    <path id="Path_593" data-name="Path 593" d="M35.116,21.132a3.616,3.616,0,1,1,3.616-3.616A3.635,3.635,0,0,1,35.116,21.132Zm0-6.7a3.08,3.08,0,1,0,3.08,3.08A3.1,3.1,0,0,0,35.116,14.436Z" transform="translate(-11.568 -5.93)" fill="#525866"/>
    <path id="Path_594" data-name="Path 594" d="M29.186,23.05l-.214-.321c-.241-.321-5.571-8.036-5.571-11.143a5.786,5.786,0,1,1,11.571,0c0,3.107-5.33,10.821-5.571,11.143Zm0-16.714a5.259,5.259,0,0,0-5.25,5.25c0,2.6,4.232,9,5.25,10.527,1.018-1.527,5.25-7.929,5.25-10.527A5.259,5.259,0,0,0,29.186,6.336Z" transform="translate(-5.638)" fill="#525866"/>
    <path id="Path_595" data-name="Path 595" d="M31.4,66.262H15.7L18.539,59.7H20.95a.268.268,0,1,1,0,.536H18.887L16.5,65.727H30.566l-2.384-5.491h-2.17a.268.268,0,1,1,0-.536H28.53Z" transform="translate(0 -39.462)" fill="#525866"/>
  </g>
</svg>
