<svg xmlns="http://www.w3.org/2000/svg" width="20" height="26.087" viewBox="0 0 20 26.087">
  <g id="noun_secure_2178149" transform="translate(-7)">
    <path id="Path_584" data-name="Path 584" d="M10.043,26.087H23.957A3.047,3.047,0,0,0,27,23.043v-11.3A3.047,3.047,0,0,0,23.957,8.7V6.522a6.522,6.522,0,1,0-13.043,0V8.7h-.87A3.047,3.047,0,0,0,7,11.739v11.3A3.047,3.047,0,0,0,10.043,26.087ZM11.783,6.522a5.652,5.652,0,1,1,11.3,0V8.7h-1.3V6.522a4.348,4.348,0,1,0-8.7,0V8.7h-1.3ZM13.957,8.7V6.522a3.478,3.478,0,0,1,6.957,0V8.7ZM7.87,11.739a2.177,2.177,0,0,1,2.174-2.174H23.957a2.177,2.177,0,0,1,2.174,2.174v11.3a2.177,2.177,0,0,1-2.174,2.174H10.043A2.177,2.177,0,0,1,7.87,23.043Z" fill="#525866"/>
    <path id="Path_585" data-name="Path 585" d="M12.3,37.913H26.217a1.3,1.3,0,0,0,1.3-1.3V25.3a1.3,1.3,0,0,0-1.3-1.3H12.3A1.3,1.3,0,0,0,11,25.3v11.3A1.3,1.3,0,0,0,12.3,37.913ZM11.87,25.3a.435.435,0,0,1,.435-.435H26.217a.435.435,0,0,1,.435.435v11.3a.435.435,0,0,1-.435.435H12.3a.435.435,0,0,1-.435-.435Z" transform="translate(-2.261 -13.565)" fill="#525866"/>
    <path id="Path_586" data-name="Path 586" d="M24.869,35.552v1.534a1.739,1.739,0,0,0,3.478,0V35.552a2.609,2.609,0,1,0-3.478,0Zm1.739-3.683A1.739,1.739,0,0,1,27.652,35a.435.435,0,0,0-.174.348v1.739a.87.87,0,0,1-1.739,0V35.347A.435.435,0,0,0,25.565,35a1.739,1.739,0,0,1,1.043-3.13Z" transform="translate(-9.609 -17.521)" fill="#525866"/>
    <path id="Path_587" data-name="Path 587" d="M22.435,28.87h.435a.435.435,0,0,0,0-.87h-.435a.435.435,0,1,0,0,.87Z" transform="translate(-8.478 -15.826)" fill="#525866"/>
    <path id="Path_588" data-name="Path 588" d="M15.435,31.478a.435.435,0,0,0,.435-.435V28.87h.87a.435.435,0,1,0,0-.87h-.87a.87.87,0,0,0-.87.87v2.174A.435.435,0,0,0,15.435,31.478Z" transform="translate(-4.522 -15.826)" fill="#525866"/>
    <path id="Path_589" data-name="Path 589" d="M15.435,39.3a.435.435,0,0,0,.435-.435v-.435a.435.435,0,1,0-.87,0v.435A.435.435,0,0,0,15.435,39.3Z" transform="translate(-4.522 -21.478)" fill="#525866"/>
    <path id="Path_590" data-name="Path 590" d="M35,50.435a.435.435,0,0,0,.435.435h.435a.435.435,0,1,0,0-.87h-.435A.435.435,0,0,0,35,50.435Z" transform="translate(-15.826 -28.261)" fill="#525866"/>
    <path id="Path_591" data-name="Path 591" d="M40.435,47.478h.87a.87.87,0,0,0,.87-.87V44.435a.435.435,0,1,0-.87,0v2.174h-.87a.435.435,0,1,0,0,.87Z" transform="translate(-18.652 -24.87)" fill="#525866"/>
    <path id="Path_592" data-name="Path 592" d="M43.435,40.3a.435.435,0,0,0,.435-.435v-.435a.435.435,0,1,0-.87,0v.435A.435.435,0,0,0,43.435,40.3Z" transform="translate(-20.348 -22.043)" fill="#525866"/>
  </g>
</svg>
