<?xml version="1.0" encoding="utf-8"?>
<!-- Svg Vector Icons : http://www.onlinewebfonts.com/icon -->
<!DOCTYPE svg PUBLIC "-//W3C//DTD SVG 1.1//EN" "http://www.w3.org/Graphics/SVG/1.1/DTD/svg11.dtd">
<svg version="1.1" xmlns="http://www.w3.org/2000/svg" xmlns:xlink="http://www.w3.org/1999/xlink" x="0px" y="0px" viewBox="0 0 1000 1000" enable-background="new 0 0 1000 1000" xml:space="preserve">
<metadata> Svg Vector Icons : http://www.onlinewebfonts.com/icon </metadata>
<g><path d="M844.4,346.5C844.4,160.6,690.2,10,500,10c-190.2,0-344.4,150.6-344.4,336.5c0,107.3,51.6,202.7,131.6,264.3C143.7,682.2,42.7,824.6,31.5,990H83c12.1-154.9,113.7-292.1,255.6-346.6c45.1,21.2,108,39.5,161.4,39.5c53.4,0,103.7-12.2,148.8-33.4l35.3-20.3l28.6-18.6C792.8,549.1,844.4,453.8,844.4,346.5L844.4,346.5z M500,628.1c-159.2,0-288.3-126.1-288.3-281.7c0-155.5,129.1-281.7,288.3-281.7c159.2,0,288.3,126.1,288.3,281.7C788.3,502,665.6,628.1,500,628.1L500,628.1z M791.3,660.2l-0.3,0.4c-5.6-5.3-13.1-8.6-21.5-8.6c-17.3,0-31.3,6.5-31.3,23.6c0,11.8,6.9,21.7,16.7,27l-0.2,0.3c94.2,66.6,141.6,167.3,151,287.2h62.7C959.5,856.8,892.1,738.2,791.3,660.2L791.3,660.2z"/></g>
</svg>