<svg xmlns="http://www.w3.org/2000/svg" xmlns:xlink="http://www.w3.org/1999/xlink" width="100" height="100" viewBox="0 0 100 100">
  <g>
    <g transform="translate(50 50) scale(0.69 0.69) rotate(0) translate(-50 -50)" style="fill:#525866">
      <svg fill="#525866" xmlns="http://www.w3.org/2000/svg" xmlns:xlink="http://www.w3.org/1999/xlink" version="1.1" x="0px" y="0px" viewBox="0 0 64 64"
        style="enable-background:new 0 0 64 64;" xml:space="preserve"><g><path d="M35,31.5c-0.3,0-0.6,0.1-0.8,0.3c-0.9,0.9-2,2-3,2.9l-0.1,0.1c-1,1-2,1.9-2.9,2.8L27.8,38l-2.4-2.5   c-0.2-0.2-0.5-0.4-0.8-0.4c0,0-0.1,0-0.1,0c-0.5,0-0.8,0.3-1,0.7c-0.2,0.4-0.1,0.9,0.3,1.2c1.2,1.2,2,2,3.2,3.2   c0.1,0.1,0.3,0.2,0.4,0.3c0.5,0.1,0.9,0,1.2-0.3c1-1,2.1-2.1,3.5-3.4c1.1-1.1,2.4-2.3,3.5-3.4c0,0,0.1-0.1,0.1-0.1   c0.3-0.4,0.4-0.9,0.1-1.3C35.7,31.7,35.4,31.5,35,31.5z"></path><path
        d="M56.4,47.1c0-9.9,0-19.9,0-29.8c0-5.3-3.9-9.2-9.2-9.2l-1.7,0v3.3l0,0.5l0.5,0c1,0,2.1-0.1,3.1,0.3   c2.2,0.7,3.5,2.7,3.5,5.1l0,17.8l0,8.9c0,0.9,0,1.9,0,2.8c0,2.1,0,4.3,0,6.5c0,1.4-0.5,2.8-1.5,3.8c-1,1.1-2.4,1.6-4,1.6   c-4.4,0-8.9,0-13.3,0l-17,0c-3.2,0-5.5-2.2-5.5-5.4c0-11.8,0-23.5,0-35.2c0-0.9,0-1.8,0.3-2.6c0.7-2.1,2.1-3.3,4.2-3.5   c0.6-0.1,1.4-0.1,2.2,0l0.5,0V8.1l-2.1,0c-0.7,0-1.3,0.1-1.9,0.2c-4.2,1-7,4.5-7,8.8l0,22.3c0,4.7,0,9.4,0,14.1   c0,0.8,0.1,1.6,0.4,2.5c0.8,3.1,3.9,6.4,8.6,6.4l0.2,0c2.3,0,21,0,21,0c3.4,0,6.8,0,10.2,0c4.2,0,8-3.6,8.3-7.8c0.1-2,0.1-4,0.1-6   L56.4,47.1z"></path><path
        d="M43.6,11.5c0,0.9-0.4,1.3-1.3,1.3H21.9c-1.1,0-1.5-0.4-1.5-1.5c0-0.9,0-2.2,0-3.1c0-0.8,0.4-1.2,1.2-1.2   c0.9,0,1.7,0,2.6-0.1c1.5-0.3,2.6-1.1,3.4-2.5c0.3-0.4,0.5-0.9,0.8-1.4c0.6-1,1.4-1.5,2.6-1.5c0.7,0,1.3,0,2,0   c1.3,0,2.3,0.6,2.9,1.7c0.5,0.8,1,1.7,1.7,2.4C38.6,6.7,40,7,41.5,7c2-0.1,2.1,0.1,2.1,2.1C43.6,9.7,43.6,10.8,43.6,11.5z"></path><g><circle cx="28.3" cy="23.1" r="1.8"></circle>
        <path
          d="M48.2,21.9c-0.5-0.4-1.1-0.8-1.6-1c-0.1,0-0.1-0.1-0.2-0.1c-0.3-0.2-0.7-0.4-1.1-0.4c-0.2,0-0.4,0.1-0.5,0.2    c-0.4,0.3-0.6,0.7-0.6,1.1c0,0.4,0.3,0.7,0.7,0.9c0.1,0.1,0.3,0.1,0.4,0.1c0.2,0,0.4-0.1,0.6-0.1c0.1-0.1,0.3-0.1,0.4-0.1    c0.4,0,0.8,0.4,1.1,1.3c0.5,1.1-0.1,2.4-0.5,3.6c-0.1,0.3-0.2,0.5-0.3,0.8c-0.4,1.1-0.8,2.2-1.2,3.3c-0.3,0.1-0.5,0.4-0.6,0.8    c-0.4,2.4-1.6,2.5-1.9,2.5h-0.1l-0.1,0c-0.6,0-1.1-0.4-1.4-1.2l-0.1-0.2c-0.2-0.6-0.3-1.1-0.4-1.1c-0.1-0.3-0.2-0.5-0.5-0.7    c0-0.1-0.1-0.1-0.1-0.2c-0.6-1.6-1.4-3.7-2.1-5.9c-0.3-1-0.1-1.9,0.7-2.6c0.2-0.2,0.4-0.3,0.6-0.3c0.1,0,0.1,0.1,0.2,0.1    c0.1,0.1,0.3,0.1,0.5,0.2h0.1c0.6,0,1.2-0.4,1.2-1.1c0-0.3-0.1-0.6-0.3-0.8c-0.2-0.2-0.5-0.3-0.8-0.3c-0.3,0-0.6,0.1-0.8,0.2    c-0.2,0.1-0.3,0.1-0.4,0.2c-0.9,0.2-1.6,0.8-2.1,1.7c-0.5,1-0.7,2.2-0.3,3.3c0.6,1.9,1.3,4,2,6.1c-0.1,0.2-0.1,0.4-0.1,0.6    c0.1,0.6,0.3,1.1,0.5,1.6c0.4,0.9,0.9,1.7,1.8,2.2c0.2,0.1,0.4,0.2,0.7,0.3l0.2,0H42l0,0.2c-0.2,6.6-5.6,11.8-12.2,11.8    c-6.8,0-12.3-5.5-12.3-12.3c0-5.4,3.6-10.3,8.8-11.8l0.2-0.1l-0.1-0.2c-0.2-0.3-0.4-0.7-0.4-1c0-0.1,0-0.2,0-0.2l0-0.2l-0.2,0.1    c-5.9,1.7-10.1,7.2-10.1,13.4c0,7.7,6.3,14,14,14c7.6,0,13.7-5.9,13.9-13.5l0-0.2h0.2c0.7-0.2,1.4-0.7,1.8-1.3    c0.6-0.8,1-1.8,1.1-2.8c0-0.1,0-0.3,0-0.4c0.1-0.2,0.1-0.4,0.2-0.7c0.3-0.8,0.6-1.6,0.8-2.4c0.3-0.9,0.7-1.9,1-2.9    c0.1-0.4,0.2-1,0.3-1.5C49.2,23.5,48.8,22.5,48.2,21.9z"></path></g></g></svg>
    </g>
  </g>
</svg>
