<svg xmlns="http://www.w3.org/2000/svg" xmlns:xlink="http://www.w3.org/1999/xlink" width="100" height="100" viewBox="0 0 100 100"><g><g transform="translate(50 50) scale(0.69 0.69) rotate(0) translate(-50 -50)" style="fill:#525866"><svg fill="#525866" xmlns="http://www.w3.org/2000/svg" xmlns:xlink="http://www.w3.org/1999/xlink" xml:space="preserve" version="1.1" style="shape-rendering:geometricPrecision;text-rendering:geometricPrecision;image-rendering:optimizeQuality;" viewBox="0 0 347 412" x="0px" y="0px" fill-rule="evenodd" clip-rule="evenodd"><defs><style type="text/css">
   
    .fil0 {fill:#525866;fill-rule:nonzero}
   
  </style></defs><g><path class="fil0" d="M327 162l-307 0 0 202c0,15 13,28 29,28l249 0c16,0 29,-13 29,-28l0 -202zm-307 -20l307 0 0 -48c0,-16 -13,-29 -29,-29l-7 0 0 16c0,16 -14,29 -30,29 -17,0 -30,-13 -30,-29l0 -16 -94 0c-13,0 -13,-20 0,-20l94 0 0 -15c0,-17 13,-30 30,-30 16,0 30,13 30,30l0 15 7 0c27,0 49,22 49,49l0 270c0,26 -22,48 -49,48l-249 0c-27,0 -49,-22 -49,-48l0 -270c0,-27 22,-49 49,-49l7 0 0 -15c0,-17 13,-30 30,-30 16,0 30,13 30,30l0 51c0,16 -14,29 -30,29 -17,0 -30,-13 -30,-29l0 -16 -7 0c-16,0 -29,13 -29,29l0 48zm241 -122c-6,0 -10,4 -10,10 0,17 0,34 0,51 0,5 4,9 10,9 5,0 10,-4 10,-9l0 -51c0,-6 -5,-10 -10,-10zm-175 0c-6,0 -10,4 -10,10l0 51c0,5 4,9 10,9 5,0 10,-4 10,-9l0 -51c0,-6 -5,-10 -10,-10z"></path></g></svg></g></g></svg>