<svg height='100px' width='100px'  fill="#525866" xmlns="http://www.w3.org/2000/svg" xmlns:xlink="http://www.w3.org/1999/xlink" version="1.1" x="0px" y="0px" viewBox="0 0 100 100" enable-background="new 0 0 100 100" xml:space="preserve"><path d="M87.5,12.5h-25c-4.167,0-4.167,0-4.167,4.167v16.667c0,4.167,0,4.167,4.167,4.167h25c4.167,0,4.167,0,4.167-4.167V16.667  C91.667,12.5,91.667,12.5,87.5,12.5z M45.833,4.167H29.167C25,4.167,25,4.167,25,8.333v8.333c0,4.167,0,4.167,4.167,4.167h16.667  c4.167,0,4.167,0,4.167-4.167V8.333C50,4.167,50,4.167,45.833,4.167z M95.833,45.833H62.5c-4.167,0-4.167,0-4.167,4.167v33.333  c0,4.167,0,4.167,4.167,4.167h33.333c4.167,0,4.167,0,4.167-4.167V50C100,45.833,100,45.833,95.833,45.833z M45.833,70.833h-25  c-4.167,0-4.167,0-4.167,4.167v16.667c0,4.167,0,4.167,4.167,4.167h25c4.167,0,4.167,0,4.167-4.167V75  C50,70.833,50,70.833,45.833,70.833z M45.833,29.167H4.167C0,29.167,0,29.167,0,33.333v25C0,62.5,0,62.5,4.167,62.5h41.667  C50,62.5,50,62.5,50,58.333v-25C50,29.167,50,29.167,45.833,29.167z"></path></svg>