<svg height='100px' width='100px'  xmlns="http://www.w3.org/2000/svg" viewBox="0 0 32 32" fill="none" x="0px" y="0px"><path fill-rule="evenodd" clip-rule="evenodd" d="M14.75 14C14.75 11.3766 12.6234 9.25 10 9.25C7.37665 9.25 5.25 11.3766 5.25 14C5.25 16.6234 7.37665 18.75 10 18.75C12.6234 18.75 14.75 16.6234 14.75 14ZM16 14C16 10.6863 13.3137 8 10 8C6.68629 8 4 10.6863 4 14C4 17.3137 6.68629 20 10 20C13.3137 20 16 17.3137 16 14Z" fill="black"></path><path fill-rule="evenodd" clip-rule="evenodd" d="M11.75 24C11.75 23.0335 10.9665 22.25 10 22.25C9.0335 22.25 8.25 23.0335 8.25 24C8.25 24.9665 9.0335 25.75 10 25.75C10.9665 25.75 11.75 24.9665 11.75 24ZM13 24C13 22.3431 11.6569 21 10 21C8.34315 21 7 22.3431 7 24C7 25.6569 8.34315 27 10 27C11.6569 27 13 25.6569 13 24Z" fill="black"></path><path fill-rule="evenodd" clip-rule="evenodd" d="M26.75 16C26.75 15.0335 25.9665 14.25 25 14.25C24.0335 14.25 23.25 15.0335 23.25 16C23.25 16.9665 24.0335 17.75 25 17.75C25.9665 17.75 26.75 16.9665 26.75 16ZM28 16C28 14.3431 26.6569 13 25 13C23.3431 13 22 14.3431 22 16C22 17.6569 23.3431 19 25 19C26.6569 19 28 17.6569 28 16Z" fill="black"></path><path fill-rule="evenodd" clip-rule="evenodd" d="M21.75 8C21.75 6.48122 20.5188 5.25 19 5.25C17.4812 5.25 16.25 6.48122 16.25 8C16.25 9.51878 17.4812 10.75 19 10.75C20.5188 10.75 21.75 9.51878 21.75 8ZM23 8C23 5.79086 21.2091 4 19 4C16.7909 4 15 5.79086 15 8C15 10.2091 16.7909 12 19 12C21.2091 12 23 10.2091 23 8Z" fill="black"></path><path fill-rule="evenodd" clip-rule="evenodd" d="M27.75 24C27.75 23.5858 27.4142 23.25 27 23.25C26.5858 23.25 26.25 23.5858 26.25 24C26.25 24.4142 26.5858 24.75 27 24.75C27.4142 24.75 27.75 24.4142 27.75 24ZM29 24C29 22.8954 28.1046 22 27 22C25.8954 22 25 22.8954 25 24C25 25.1046 25.8954 26 27 26C28.1046 26 29 25.1046 29 24Z" fill="black"></path><path fill-rule="evenodd" clip-rule="evenodd" d="M18.75 16C18.75 16.1381 18.8619 16.25 19 16.25C19.1381 16.25 19.25 16.1381 19.25 16C19.25 15.8619 19.1381 15.75 19 15.75C18.8619 15.75 18.75 15.8619 18.75 16ZM20 16C20 15.4477 19.5523 15 19 15C18.4477 15 18 15.4477 18 16C18 16.5523 18.4477 17 19 17C19.5523 17 20 16.5523 20 16Z" fill="black"></path><path fill-rule="evenodd" clip-rule="evenodd" d="M21.75 24C21.75 22.4812 20.5188 21.25 19 21.25C17.4812 21.25 16.25 22.4812 16.25 24C16.25 25.5188 17.4812 26.75 19 26.75C20.5188 26.75 21.75 25.5188 21.75 24ZM23 24C23 21.7909 21.2091 20 19 20C16.7909 20 15 21.7909 15 24C15 26.2091 16.7909 28 19 28C21.2091 28 23 26.2091 23 24Z" fill="black"></path></svg>