<svg xmlns="http://www.w3.org/2000/svg" xmlns:xlink="http://www.w3.org/1999/xlink" width="100" height="100" viewBox="0 0 100 100"><g><g transform="translate(50 50) scale(0.69 0.69) rotate(0) translate(-50 -50)" style="fill:#525866"><svg fill="#525866" xmlns="http://www.w3.org/2000/svg" xmlns:xlink="http://www.w3.org/1999/xlink" viewBox="0 0 100 100" version="1.1" x="0px" y="0px"><title>Gear 7.3</title><desc>Created with Sketch.</desc><g stroke="none" stroke-width="1" fill="none" fill-rule="evenodd"><g fill="#525866"><path d="M37.8611733,67.906523 C37.1741403,68.5665331 36.0689896,68.5530929 35.3906821,67.8744342 L32.1263809,64.6084434 C31.4489993,63.9307111 31.4350286,62.8242341 32.0947796,62.1374708 L33.3853239,60.7940877 C34.0452526,60.1071394 34.2878202,58.844317 33.9212425,57.95932 L33.0025124,55.7413094 C32.6385633,54.8626586 31.5712067,54.1348781 30.6190773,54.1157776 L28.7566093,54.0784148 C27.8042235,54.0593092 27.0319616,53.2683479 27.0317134,52.3088279 L27.0305186,47.6912141 C27.0302706,46.7330039 27.8024826,45.9407258 28.7547295,45.9216229 L30.6174272,45.8842555 C31.5699305,45.8651475 32.634555,45.1435772 33.0012051,44.2584055 L33.9201165,42.0399573 C34.2841374,41.1611331 34.044013,39.8915702 33.3841805,39.2047222 L32.093477,37.8611733 C31.4334669,37.1741403 31.4469071,36.0689896 32.1255658,35.3906821 L35.3915566,32.1263809 C36.0692889,31.4489993 37.1757659,31.4350286 37.8625292,32.0947796 L39.2059123,33.3853239 C39.8928606,34.0452526 41.155683,34.2878202 42.04068,33.9212425 L44.2586906,33.0025124 C45.1373414,32.6385633 45.8651219,31.5712067 45.8842224,30.6190773 L45.9215852,28.7566093 C45.9406908,27.8042235 46.7316521,27.0319616 47.6911721,27.0317134 L52.3087859,27.0305186 C53.2669961,27.0302706 54.0592742,27.8024826 54.0783771,28.7547295 L54.1157445,30.6174272 C54.1348525,31.5699305 54.8564228,32.634555 55.7415945,33.0012051 L57.9600427,33.9201165 C58.8388669,34.2841374 60.1084298,34.044013 60.7952778,33.3841805 L62.1388267,32.093477 C62.8258597,31.4334669 63.9310104,31.4469071 64.6093179,32.1255658 L67.8736191,35.3915566 C68.5510007,36.0692889 68.5649714,37.1757659 67.9052204,37.8625292 L66.6146761,39.2059123 C65.9547474,39.8928606 65.7121798,41.155683 66.0787575,42.04068 L66.9974876,44.2586906 C67.3614367,45.1373414 68.4287933,45.8651219 69.3809227,45.8842224 L71.2433907,45.9215852 C72.1957765,45.9406908 72.9680384,46.7316521 72.9682866,47.6911721 L72.9694814,52.3087859 C72.9697294,53.2669961 72.1975174,54.0592742 71.2452705,54.0783771 L69.3825728,54.1157445 C68.4300695,54.1348525 67.365445,54.8564228 66.9987949,55.7415945 L66.0798835,57.9600427 C65.7158626,58.8388669 65.955987,60.1084298 66.6158195,60.7952778 L67.906523,62.1388267 C68.5665331,62.8258597 68.5530929,63.9310104 67.8744342,64.6093179 L64.6084434,67.8736191 C63.9307111,68.5510007 62.8242341,68.5649714 62.1374708,67.9052204 L60.7940877,66.6146761 C60.1071394,65.9547474 58.844317,65.7121798 57.95932,66.0787575 L55.7413094,66.9974876 C54.8626586,67.3614367 54.1348781,68.4287933 54.1157776,69.3809227 L54.0784148,71.2433907 C54.0593092,72.1957765 53.2683479,72.9680384 52.3088279,72.9682866 L47.6912141,72.9694814 C46.7330039,72.9697294 45.9407258,72.1975174 45.9216229,71.2452705 L45.8842555,69.3825728 C45.8651475,68.4300695 45.1435772,67.365445 44.2584055,66.9987949 L42.0399573,66.0798835 C41.1611331,65.7158626 39.8915702,65.955987 39.2047222,66.6158195 L37.8611733,67.906523 Z M50,88 C29.0131795,88 12,70.9868205 12,50 C12,29.0131795 29.0131795,12 50,12 C70.9868205,12 88,29.0131795 88,50 C88,70.9868205 70.9868205,88 50,88 Z M45.7035087,60.3726475 C51.4321638,62.7455341 57.9997609,60.0251463 60.3726475,54.2964913 C62.7455341,48.5678362 60.0251463,42.0002391 54.2964913,39.6273525 C48.5678362,37.2544659 42.0002391,39.9748537 39.6273525,45.7035087 C37.2544659,51.4321638 39.9748537,57.9997609 45.7035087,60.3726475 Z"></path></g></g></svg></g></g></svg>