<svg height='100px' width='100px'  fill="#000000" xmlns="http://www.w3.org/2000/svg" viewBox="0 0 96 96" x="0px" y="0px"><title>Artboard 15</title><path d="M84.5,10.5h-72a1.9988,1.9988,0,0,0-2,2v72a1.9988,1.9988,0,0,0,2,2h72a1.9988,1.9988,0,0,0,2-2v-72A1.9988,1.9988,0,0,0,84.5,10.5Zm-70,6.8281,8,8V71.6719l-8,8ZM58.5,70.5V49.3281l4-4V70.5Zm-8,0V57.3281l4-4V70.5Zm-13.1719,0L46.5,61.3281V70.5ZM26.5,70.5V65.3281L65.3281,26.5H70.5v5.1719L31.6719,70.5Zm12-44V47.6719l-4,4V26.5Zm8,0V39.6719l-4,4V26.5Zm13.1719,0L50.5,35.6719V26.5ZM30.5288,55.6431,26.5,59.6719V26.5h4v29C30.5,55.5508,30.5251,55.5933,30.5288,55.6431ZM66.5,41.3281l4-4V70.5h-4ZM71.6719,22.5H25.3281l-8-8H79.6719Zm-46.3438,52H71.6719l8,8H17.3281ZM74.5,71.6719V25.3281l8-8V79.6719Z"></path></svg>