<svg xmlns="http://www.w3.org/2000/svg" xmlns:xlink="http://www.w3.org/1999/xlink" width="100" height="100" viewBox="0 0 100 100"><g><g transform="translate(50 50) scale(0.69 0.69) rotate(0) translate(-50 -50)" style="fill:#525866"><svg fill="#525866" xmlns="http://www.w3.org/2000/svg" viewBox="0 0 64 64" x="0px" y="0px"><path d="M22,57H42a1,1,0,0,0,1-1V47a1,1,0,0,0-1-1H22a1,1,0,0,0-1,1v9A1,1,0,0,0,22,57Zm1-2V54H41v1Zm0-3V51H41v1Zm18-4v1H23V48Z"></path><rect x="41" y="36" width="2" height="2"></rect><path d="M22,34H42a1,1,0,0,0,1-1V15a1,1,0,0,0-1-1H22a1,1,0,0,0-1,1V33A1,1,0,0,0,22,34Zm7.414-2L41,20.414v4.172L33.586,32ZM41,32H36.414L41,27.414Zm0-16v1.586L26.586,32H23V26.414L33.414,16ZM30.586,16,23,23.586V16Z"></path><path d="M49,7H15a1,1,0,0,0-1,1V59H2v2H61V59H50V8A1,1,0,0,0,49,7ZM45,59H19V12H45Zm2,0V11a1,1,0,0,0-1-1H18a1,1,0,0,0-1,1V59H16V9H48V59Z"></path><path d="M62,24V18a1,1,0,0,0-1-1H53a1,1,0,0,0-1,1v6a1,1,0,0,0,1,1h8A1,1,0,0,0,62,24Zm-2-1H54V19h6Z"></path><rect x="53" y="27" width="8" height="2"></rect><rect x="53" y="31" width="5" height="2"></rect><rect x="53" y="35" width="3" height="2"></rect></svg></g></g></svg>