<svg height='100px' width='100px'  fill="#000000" xmlns="http://www.w3.org/2000/svg" data-name="Layer 1" viewBox="0 0 100 100" x="0px" y="0px"><title>EXPORT - UP</title><circle cx="40.71167" cy="52.75562" r="7.54456"></circle><path d="M61.06689,46.533a7.51259,7.51259,0,0,0-2.58429.464,9.49751,9.49751,0,0,1-1.724,13.26941A7.543,7.543,0,1,0,61.06689,46.533Z"></path><path d="M50.25659,52.75537a9.51315,9.51315,0,0,1-2.77832,6.72339,7.54458,7.54458,0,1,0,.00006-13.44629A9.51217,9.51217,0,0,1,50.25659,52.75537Z"></path><path d="M40.71167,31.157a7.54458,7.54458,0,0,0-4.80212,13.36353,9.45934,9.45934,0,0,1,9.60424,0A7.54458,7.54458,0,0,0,40.71167,31.157Z"></path><path d="M22.9895,52.75562a7.53457,7.53457,0,0,0,10.95557,6.72314A9.52377,9.52377,0,0,1,33.945,46.03247,7.53452,7.53452,0,0,0,22.9895,52.75562Z"></path><path d="M24.66449,60.26648a9.49623,9.49623,0,0,1-1.72418-13.26965,7.54191,7.54191,0,1,0,1.72418,13.26965Z"></path><path d="M29.66663,62.25635a7.54955,7.54955,0,1,0,12.40283-.06409A9.27185,9.27185,0,0,1,35.67,60.845l-.81872.41626a9.43738,9.43738,0,0,1-4.31738,1.03906C30.24121,62.30029,29.95276,62.28223,29.66663,62.25635Z"></path><path d="M42.63782,79.19519a7.50452,7.50452,0,0,0-1.611-4.64954,9.49749,9.49749,0,0,1-11.24109-.7102,7.5439,7.5439,0,1,0,12.852,5.35974Z"></path><path d="M53.07257,66.51111a7.50662,7.50662,0,0,0-1.31586-4.25476c-.28613.02588-.57452.04394-.86731.04394a9.43187,9.43187,0,0,1-5.07959-1.48962,9.64108,9.64108,0,0,1-1.73761.84753,9.41991,9.41991,0,0,1-1.59625,11.749,7.538,7.538,0,0,0,10.59662-6.89612Z"></path><path d="M50.8894,43.21094a9.45958,9.45958,0,0,1,6.07032,2.21289l.83691-.30567a9.68033,9.68033,0,0,1,1.58966-.43164A7.54449,7.54449,0,0,0,49.20721,34.37244a9.46336,9.46336,0,0,1-.21179,9.05139A9.35916,9.35916,0,0,1,50.8894,43.21094Z"></path><path d="M28.62018,33.46191a7.54035,7.54035,0,0,0-6.58313,11.22474,9.66613,9.66613,0,0,1,1.58966.432l.83624.30567a9.4602,9.4602,0,0,1,6.071-2.21338,9.35916,9.35916,0,0,1,1.894.21289,9.46336,9.46336,0,0,1-.21179-9.05139A7.51056,7.51056,0,0,0,28.62018,33.46191Z"></path><path d="M28.40173,72.3916a9.403,9.403,0,0,1-.79394-10.56018,9.71745,9.71745,0,0,1-1.07453-.42932l-.72491.50513a9.48989,9.48989,0,0,1-5.45215,1.71484c-.18353,0-.36267-.01733-.5437-.02759a7.53343,7.53343,0,0,0,6.45,11.44409c.08649,0,.16907-.01428.25482-.01721A9.60326,9.60326,0,0,1,28.40173,72.3916Z"></path><path d="M45.52808,76.05566a9.43809,9.43809,0,0,1-1.46717-.11938,9.491,9.491,0,0,1-1.83807,9.5824,7.54131,7.54131,0,0,0,9.41473-11.68323A9.49928,9.49928,0,0,1,45.52808,76.05566Z"></path><path d="M41.13159,87.19482l-.43762-.28466a9.46422,9.46422,0,0,1-7.43732,1.64819,7.53473,7.53473,0,0,0,14.91,0,9.48608,9.48608,0,0,1-7.0351-1.36353Z"></path><path d="M61.06714,63.62207A9.49426,9.49426,0,0,1,55.614,61.90723l-.71771-.50074c-.04816.023-.09534.04786-.14422.06958-.12665.05628-.25525.10767-.38471.15857q-.21818.08588-.441.16175c-.03668.01233-.074.02295-.11078.03491a9.40324,9.40324,0,0,1-.79394,10.5603,9.60326,9.60326,0,0,1,1.8844,2.62976c.08575.00293.16833.01721.25482.01721a7.53343,7.53343,0,0,0,6.45-11.44409C61.42987,63.60474,61.25067,63.62207,61.06714,63.62207Z"></path><path d="M85.40485,26.33649c1.14215,6.89209-6.44727,9.44732-11.80811,9.9508-2.93085.27527-6.2688.58637-8.79547-1.22845a5.94933,5.94933,0,0,1-2.43451-5.77374A14.04114,14.04114,0,0,0,67.17609,31.221a10.90525,10.90525,0,0,0,9.01861-1.867c2.239-1.874,1.99823-4.64624-.32641-6.3584-2.73322-2.01306-6.89521-1.59265-9.926-.53826a7.903,7.903,0,0,0-4.13208,3.40313,2.8931,2.8931,0,0,1-.01752-1.50537c.64466-2.59192,3.13916-4.3678,5.44422-5.47162a17.78168,17.78168,0,0,1,2.50213.67591c1.82837.642,2.60718-2.25745.79749-2.89283-8.85736-3.10931-17.1886.55787-23.62366,6.51136-2.8742-.09467-8.17688,1.94287-10.20758.39a5.61142,5.61142,0,0,0,3.20526-1.71924c2.31061-2.47766,1.85-10.38086-.00708-13.50549a.38806.38806,0,0,0-.69537-.03992c-.94763,1.33368-1.41614,4.69751-1.913,3.59259-.23992-.53369.36945-.99866-.90533-3.063-1.8656-3.02124-3.83441-3.95306-5.03259-3.82061-.54743.06024-1.46167,2.47467-1.47925,5.17279a1.09652,1.09652,0,0,1-.53455.96508c-.26135.14441-.54742.17273-.69586-.14434l-.53045-1.13337a3.08933,3.08933,0,0,0-.736-1.01031,5.11489,5.11489,0,0,0-2.65527-1.23187c-.25262-.0019-.5036-.0036-.75635-.00562l-6.58893.61054-.14984,6.6156c.01947.252.0387.50219.05817.75427a5.11492,5.11492,0,0,0,1.41406,2.56287,3.08661,3.08661,0,0,0,1.0589.66357l1.16766.45026c.32673.126.31855.41339.19257.68414a1.09672,1.09672,0,0,1-.92554.60065c-2.6903.20544-5.03509,1.28582-5.05713,1.83612-.04858,1.2044,1.01825,3.10345,4.16217,4.754,2.14814,1.12774,2.56952.48761,3.1186.68957,1.137.41876-2.186,1.12036-3.45038,2.15869a.38818.38818,0,0,0,.08825.6911c3.24671,1.63477,11.1623,1.54328,13.4729-.93432a5.6023,5.6023,0,0,0,1.486-3.2666c1.85913,1.45813,5.819.39709,9.1878.5957-.57666.69055-1.13293,1.39392-1.6618,2.10864a9.455,9.455,0,0,1,3.11712.82337c4.86548-6.26978,11.85761-11.604,19.68293-11.45081-2.27271,1.53534-4.25916,3.76331-4.37049,6.50787a4.257,4.257,0,0,0,.92884,2.84687,8.65678,8.65678,0,0,0-.297,1.38311A7.682,7.682,0,0,0,64.497,36.889c3.24689,1.89673,7.39557,1.36535,10.95007.90588,6.1615-.79639,12.78406-4.78674,11.60327-11.912C86.87085,24.80029,85.22681,25.26227,85.40485,26.33649ZM63.6297,26.16931c1.95288-2.70483,7.02216-3.58935,10.02246-2.40246.7132.28216,1.9436.82446,2.19348,1.65118A2.93031,2.93031,0,0,1,74.278,28.59534,9.18517,9.18517,0,0,1,69.934,29.76868c-1.88574.0603-5.26666-.66889-7.05341-2.28022A7.18839,7.18839,0,0,1,63.6297,26.16931Z"></path></svg>