<svg xmlns="http://www.w3.org/2000/svg" xmlns:xlink="http://www.w3.org/1999/xlink" width="100" height="100" viewBox="0 0 100 100"><g><g transform="translate(50 50) scale(0.69 0.69) rotate(0) translate(-50 -50)" style="fill:#525866"><svg fill="#525866" xmlns="http://www.w3.org/2000/svg" xmlns:xlink="http://www.w3.org/1999/xlink" version="1.1" x="0px" y="0px" viewBox="0 0 100 100" style="enable-background:new 0 0 100 100;" xml:space="preserve"><path d="M65.3,81.3c-0.2,0.1-0.5,0.2-0.8,0.2c-0.8,0-1.5-0.7-1.5-1.5c-0.5-0.3-0.9-0.6-1.3-0.9c0.2,0.3,0.3,0.6,0.3,0.9  c0,0.8-0.7,1.5-1.5,1.5S59,80.8,59,80s0.7-1.5,1.5-1.5c0.2,0,0.4,0.1,0.6,0.1c-1.5-1.3-2.8-2.8-3.7-4.5H28c-0.8,0-1.5-0.7-1.5-1.5  s0.7-1.5,1.5-1.5h28c-0.5-1.4-0.8-2.8-0.9-4.3H28c-0.8,0-1.5-0.7-1.5-1.5s0.7-1.5,1.5-1.5h27.1c0.1-1.5,0.5-3,0.9-4.3H28  c-0.8,0-1.5-0.7-1.5-1.5s0.7-1.5,1.5-1.5h29.4c3-5.2,8.7-8.7,15.1-8.7V18c0-4.4-3.6-8-8-8h-44c-4.4,0-8,3.6-8,8v64c0,4.4,3.6,8,8,8  h44c4.1,0,7.5-3.1,8-7.2C69.9,82.8,67.5,82.3,65.3,81.3z M30,33.3h9v-9h7v9h9v7h-9v9h-7v-9h-9V33.3z M24,81.5  c-0.8,0-1.5-0.7-1.5-1.5s0.7-1.5,1.5-1.5s1.5,0.7,1.5,1.5S24.8,81.5,24,81.5z M24,74.2c-0.8,0-1.5-0.7-1.5-1.5s0.7-1.5,1.5-1.5  s1.5,0.7,1.5,1.5S24.8,74.2,24,74.2z M24,66.8c-0.8,0-1.5-0.7-1.5-1.5s0.7-1.5,1.5-1.5s1.5,0.7,1.5,1.5S24.8,66.8,24,66.8z M24,59.5  c-0.8,0-1.5-0.7-1.5-1.5s0.7-1.5,1.5-1.5s1.5,0.7,1.5,1.5S24.8,59.5,24,59.5z M48,81.5H28c-0.8,0-1.5-0.7-1.5-1.5s0.7-1.5,1.5-1.5  h20c0.8,0,1.5,0.7,1.5,1.5S48.8,81.5,48,81.5z M52.5,81.5c-0.8,0-1.5-0.7-1.5-1.5s0.7-1.5,1.5-1.5S54,79.2,54,80  S53.3,81.5,52.5,81.5z M56.5,81.5c-0.8,0-1.5-0.7-1.5-1.5s0.7-1.5,1.5-1.5S58,79.2,58,80S57.3,81.5,56.5,81.5z M72.5,50.3  c-8.3,0-15,6.7-15,15c0,8.3,6.7,15,15,15s15-6.7,15-15C87.5,57,80.8,50.3,72.5,50.3z M79.6,67.1l-7.1,7.1l-7.1-7.1c-2-2-2-5.1,0-7.1  c2-2,5.1-2,7.1,0c2-2,5.1-2,7.1,0C81.5,61.9,81.5,65.1,79.6,67.1z"></path></svg></g></g></svg>