<svg xmlns="http://www.w3.org/2000/svg" xmlns:xlink="http://www.w3.org/1999/xlink" width="100" height="100" viewBox="0 0 100 100"><g><g transform="translate(50 50) scale(0.69 0.69) rotate(0) translate(-50 -50)" style="fill:#525866"><svg fill="#525866" xmlns="http://www.w3.org/2000/svg" data-name="Layer 1" viewBox="0 0 100 100" x="0px" y="0px"><title>Education </title><path d="M67,90H65V88h2Zm-4-2H6v2H63Zm8,0v2H94V88ZM33,94h2V92H33Zm4,0H94V92H37ZM6,94H29V92H6ZM50,45a5,5,0,1,1,5-5A5,5,0,0,1,50,45Zm0-2a3,3,0,1,0-3-3A3,3,0,0,0,50,43Zm1.6,4H48.4A7.44,7.44,0,0,0,41,54.46h2A5.44,5.44,0,0,1,48.4,49h3.2A5.44,5.44,0,0,1,57,54.46h2A7.44,7.44,0,0,0,51.6,47ZM59,56H41v2H59Zm0,3H41v2H59ZM41,64H59V62H41ZM62,53h2V51H62ZM41,69H59a5,5,0,0,0,5-5V55H62v9a3,3,0,0,1-3,3H41a3,3,0,0,1-3-3V36a3,3,0,0,1,3-3H59a3,3,0,0,1,3,3V47h2V36a5,5,0,0,0-5-5H54V25a4,4,0,0,0-3-3.86V10H49V21L43.12,10H40.85L47.3,22.07h0l1,1.88h0l.81,1.52A1,1,0,0,0,51,25V23.28A2,2,0,0,1,52,25v6H48V27.62l-1.89-3.53A4.53,4.53,0,0,0,46,25v6H41a5,5,0,0,0-5,5V64A5,5,0,0,0,41,69ZM19.15,18.83l1.41-1.42L22,18.83l1.41-1.42L22,16l1.42-1.41L22,13.17l-1.42,1.42-1.41-1.42-1.42,1.42L19.15,16l-1.42,1.41ZM78,19h2V17h2V15H80V13H78v2H76v2h2ZM22,79V77h2V75H22V73H20v2H18v2h2v2Zm55-.17,1.42-1.42,1.41,1.42,1.42-1.42L79.85,76l1.42-1.41-1.42-1.42-1.41,1.42L77,73.17l-1.41,1.42L77,76l-1.42,1.41Z"></path></svg></g></g></svg>