<svg xmlns="http://www.w3.org/2000/svg" viewBox="0 0 128 160" x="0px" y="0px">
  <path d="M79.22,34H26.77a2,2,0,0,0,0,4H79.22a2,2,0,0,0,0-4Z"/>
  <path d="M26.77,118H79.22a2,2,0,0,0,0-4H26.77a2,2,0,0,0,0,4Z"/>
  <path d="M80,46a7,7,0,0,1,1.18-.44A2,2,0,0,0,79.22,44H26.77a2,2,0,0,0,0,4H77.46A7.06,7.06,0,0,1,80,46Z"/>
  <path
    d="M12,66a2,2,0,0,0,2-2V9c0-3.32,1.68-5,5-5H58V17.94A10,10,0,0,0,68,28H92V43.06c.23,0,.46-.05.7-.05a7.29,7.29,0,0,1,3.3.78V24L61.63,0H19c-5.55,0-9,3.45-9,9V64A2,2,0,0,0,12,66ZM62,17.94V5.15L89.06,24H68A6,6,0,0,1,62,17.94Z"/>
  <path d="M92,103.44V119c0,3.32-1.68,5-5,5H19c-3.32,0-5-1.68-5-5V80a2,2,0,0,0-4,0v39c0,5.55,3.45,9,9,9H87c5.55,0,9-3.45,9-9V107.81l-3-6.56Z"/>
  <path
    d="M116,72.88a12.05,12.05,0,0,1-.9-1.1,11.57,11.57,0,0,1,.88-1.13c1-1.19,2.27-2.66,1.83-4.47s-2.22-2.54-3.65-3.15a11.58,11.58,0,0,1-1.35-.64,11.37,11.37,0,0,1,.3-1.36c.39-1.51.87-3.39-.33-4.84a4.35,4.35,0,0,0-3.53-1.28l-1.08,0a12.39,12.39,0,0,1-1.59,0,10.38,10.38,0,0,1-.38-1.46c-.31-1.49-.7-3.35-2.37-4.12a3.29,3.29,0,0,0-1.39-.3A7.53,7.53,0,0,0,99,50.21a11.38,11.38,0,0,1-1.36.64,10.52,10.52,0,0,1-1-1.15c-.94-1.2-2.11-2.7-4-2.7s-3,1.56-3.92,2.79a10.89,10.89,0,0,1-.94,1.16,11.05,11.05,0,0,1-1.38-.62,7.68,7.68,0,0,0-3.33-1.08,3.29,3.29,0,0,0-1.44.32c-1.67.8-2,2.68-2.3,4.18a10.81,10.81,0,0,1-.33,1.43,5.81,5.81,0,0,1-.78,0l-1.49,0c-.91,0-2.79,0-3.9,1.39s-.66,3.36-.24,4.86A12,12,0,0,1,73,62.8a11.73,11.73,0,0,1-1.34.67c-1.42.63-3.18,1.42-3.58,3.21S69,70,70,71.12a12,12,0,0,1,.91,1.1A11.88,11.88,0,0,1,70,73.35c-1,1.19-2.27,2.66-1.83,4.47s2.22,2.54,3.65,3.15a11.78,11.78,0,0,1,1.35.63,11.58,11.58,0,0,1-.3,1.36c-.39,1.51-.87,3.39.34,4.84a4.35,4.35,0,0,0,3.53,1.28l1.08,0,.86,0-7,14.88a2,2,0,0,0,2.54,2.71l5.19-2,1.53,5A2,2,0,0,0,82.72,111h.13a2,2,0,0,0,1.82-1.17l6.27-13.72a3.54,3.54,0,0,0,2.28.88h0a3.36,3.36,0,0,0,1.9-.64l6.16,13.47a2,2,0,0,0,1.82,1.17h.13a2,2,0,0,0,1.78-1.41l1.53-5,5.19,2a2,2,0,0,0,2.54-2.71l-7.12-15.13h2c.9,0,2.79,0,3.9-1.39s.66-3.36.23-4.86A11.77,11.77,0,0,1,113,81.2a11.67,11.67,0,0,1,1.35-.67c1.42-.63,3.18-1.42,3.58-3.21S117,74,116,72.88Zm-32.77,30.5-.62-2A2,2,0,0,0,80,100.09l-2.52,1L81,93.64a3.16,3.16,0,0,0,1.22,1,3.3,3.3,0,0,0,1.39.3A7.52,7.52,0,0,0,87,93.79l.85-.43Zm22.8-3.29a2,2,0,0,0-2.64,1.28l-.62,2L98.07,93.1l.05-.05a11.2,11.2,0,0,1,1.38.62,7.68,7.68,0,0,0,3.34,1.08,3.3,3.3,0,0,0,1.45-.32,3.1,3.1,0,0,0,.84-.61l3.42,7.26Zm6.69-23.21c-1.28.57-2.74,1.22-3.39,2.58s-.23,2.84.14,4.16c.09.33.22.8.29,1.16-.28,0-.79,0-1.28,0-1.45,0-2.93-.08-4.09.85s-1.48,2.5-1.74,3.87c-.06.32-.15.77-.24,1.12-.36-.14-.81-.37-1.13-.53A7.64,7.64,0,0,0,98,89a3.43,3.43,0,0,0-.78.09c-1.46.34-2.4,1.6-3.23,2.71-.21.28-.51.68-.75,1-.25-.27-.56-.66-.77-.94-.85-1.09-1.82-2.33-3.29-2.64a3.44,3.44,0,0,0-.71-.07,7.45,7.45,0,0,0-3.35,1.13c-.32.17-.78.41-1.13.55-.1-.34-.19-.79-.26-1.1-.29-1.37-.61-2.92-1.83-3.85A5.05,5.05,0,0,0,78.76,85l-1.09,0c-.41,0-.86,0-1.17,0,.06-.35.18-.8.26-1.12.34-1.33.73-2.84.06-4.18s-2.14-2-3.43-2.5c-.3-.13-.72-.31-1-.47.21-.29.5-.63.71-.87C74,74.88,75,73.68,75,72.17s-1.06-2.67-2-3.71c-.21-.24-.51-.57-.73-.86.32-.17.73-.35,1-.48,1.28-.57,2.74-1.22,3.39-2.58s.23-2.84-.14-4.16c-.09-.33-.22-.8-.29-1.16.28,0,.8,0,1.28,0,1.45,0,2.93.08,4.09-.85s1.48-2.5,1.74-3.86c.06-.32.15-.77.24-1.12.35.14.81.37,1.13.53A7.64,7.64,0,0,0,88,55a3.43,3.43,0,0,0,.78-.09c1.46-.34,2.4-1.6,3.23-2.71.21-.28.51-.68.75-1,.25.27.56.66.77.94.85,1.09,1.82,2.33,3.29,2.65a3.38,3.38,0,0,0,.7.07,7.44,7.44,0,0,0,3.35-1.13c.32-.17.77-.41,1.13-.55.1.34.19.79.25,1.1.29,1.37.61,2.92,1.83,3.85a5.05,5.05,0,0,0,3.12.82l1.09,0c.41,0,.87,0,1.17,0-.06.36-.18.8-.26,1.12-.34,1.33-.73,2.84-.06,4.18s2.14,2,3.43,2.5c.3.13.72.31,1,.47-.21.29-.5.63-.71.87-.9,1.06-1.93,2.26-1.91,3.77s1.06,2.68,2,3.71c.21.24.51.57.73.86C113.42,76.57,113,76.75,112.72,76.88Z"/>
  <path d="M93,60a12,12,0,1,0,12,12A12,12,0,0,0,93,60Zm0,20a8,8,0,1,1,8-8A8,8,0,0,1,93,80Z"/>
  <circle cx="12" cy="72" r="2"/>
  <path d="M69.78,54.1l.09-.1H26.77a2,2,0,0,0,0,4H68.24A7.13,7.13,0,0,1,69.78,54.1Z"/>
  <path d="M24.77,66a2,2,0,0,0,2,2H64a7.17,7.17,0,0,1,.8-4H26.77A2,2,0,0,0,24.77,66Z"/>
  <path d="M26.77,74a2,2,0,0,0,0,4h37.4a7.23,7.23,0,0,1,.61-4Z"/>
  <path d="M26.77,84a2,2,0,0,0,0,4H68.85a8.84,8.84,0,0,1-.26-4Z"/>
  <path d="M26.77,94a2,2,0,0,0,0,4H70.05l1.88-4Z"/>
  <path d="M26.77,104a2,2,0,0,0,0,4H68.46a6,6,0,0,1-.9-4Z"/>
</svg>
