<svg xmlns="http://www.w3.org/2000/svg" xmlns:xlink="http://www.w3.org/1999/xlink" width="100" height="100" viewBox="0 0 100 100"><g><g transform="translate(50 50) scale(0.69 0.69) rotate(0) translate(-50 -50)" style="fill:#525866"><svg fill="#525866" xmlns="http://www.w3.org/2000/svg" xmlns:xlink="http://www.w3.org/1999/xlink" version="1.1" x="0px" y="0px" viewBox="0 0 128 128" style="enable-background:new 0 0 128 128;" xml:space="preserve"><g><g><g><path d="M83.822,12.21L72.991,2.262C72.807,2.094,72.568,2,72.319,2H48.513c-2.569,0-4.659,2.1-4.659,4.682     v42.735c0,2.581,2.09,4.681,4.659,4.681h30.973c2.569,0,4.659-2.1,4.659-4.681V12.949C84.146,12.667,84.028,12.4,83.822,12.21z      M52.48,20.973h13.993c0.55,0,0.995,0.447,0.995,1s-0.445,1-0.995,1H52.48c-0.55,0-0.995-0.447-0.995-1     S51.929,20.973,52.48,20.973z M59.279,47.071h-6.8c-0.55,0-0.995-0.447-0.995-1s0.445-1,0.995-1h6.8c0.55,0,0.995,0.447,0.995,1     S59.83,47.071,59.279,47.071z M75.52,47.071H64.393c-0.55,0-0.995-0.447-0.995-1s0.445-1,0.995-1H75.52     c0.55,0,0.995,0.447,0.995,1S76.071,47.071,75.52,47.071z M75.52,39.066H52.48c-0.55,0-0.995-0.447-0.995-1     c0-0.553,0.445-1,0.995-1H75.52c0.55,0,0.995,0.447,0.995,1C76.516,38.619,76.071,39.066,75.52,39.066z M75.52,30.979H52.48     c-0.55,0-0.995-0.447-0.995-1s0.445-1,0.995-1H75.52c0.55,0,0.995,0.447,0.995,1S76.071,30.979,75.52,30.979z M74.409,11.792     c-0.676,0-1.225-0.552-1.225-1.231V5.27l7.101,6.522H74.409z"></path><g><rect x="61.823" y="52.822" width="2.986" height="9.723"></rect><polygon points="30.861,74.66 27.875,74.66 27.875,61.479 93.793,61.479 93.793,74.198 90.807,74.198       90.807,64.48 30.861,64.48     "></polygon></g></g><path d="M51.968,84.111l-10.831-9.948c-0.184-0.168-0.423-0.262-0.672-0.262H16.659    c-2.569,0-4.659,2.1-4.659,4.682v42.735C12,123.9,14.09,126,16.659,126h30.973c2.569,0,4.659-2.1,4.659-4.681V84.849    C52.292,84.568,52.174,84.3,51.968,84.111z M20.626,92.874h13.993c0.55,0,0.995,0.447,0.995,1s-0.445,1-0.995,1H20.626    c-0.55,0-0.995-0.447-0.995-1S20.075,92.874,20.626,92.874z M27.425,118.972h-6.8c-0.55,0-0.995-0.447-0.995-1s0.445-1,0.995-1    h6.8c0.55,0,0.995,0.447,0.995,1S27.976,118.972,27.425,118.972z M43.666,118.972H32.539c-0.55,0-0.995-0.447-0.995-1    s0.445-1,0.995-1h11.128c0.55,0,0.995,0.447,0.995,1S44.217,118.972,43.666,118.972z M43.666,110.967H20.626    c-0.55,0-0.995-0.447-0.995-1s0.445-1,0.995-1h23.041c0.55,0,0.995,0.447,0.995,1S44.217,110.967,43.666,110.967z M43.666,102.88    H20.626c-0.55,0-0.995-0.447-0.995-1s0.445-1,0.995-1h23.041c0.55,0,0.995,0.447,0.995,1S44.217,102.88,43.666,102.88z     M42.555,83.693c-0.676,0-1.225-0.552-1.225-1.231v-5.291l7.101,6.522H42.555z"></path><path d="M115.676,84.111l-10.831-9.948c-0.184-0.168-0.423-0.262-0.672-0.262H80.367    c-2.569,0-4.659,2.1-4.659,4.682v42.735c0,2.581,2.09,4.681,4.659,4.681h30.973c2.569,0,4.659-2.1,4.659-4.681V84.849    C116,84.568,115.882,84.3,115.676,84.111z M84.334,92.874h13.993c0.55,0,0.995,0.447,0.995,1s-0.445,1-0.995,1H84.334    c-0.55,0-0.995-0.447-0.995-1S83.783,92.874,84.334,92.874z M91.133,118.972h-6.8c-0.55,0-0.995-0.447-0.995-1s0.445-1,0.995-1    h6.8c0.55,0,0.995,0.447,0.995,1S91.684,118.972,91.133,118.972z M107.374,118.972H96.247c-0.55,0-0.995-0.447-0.995-1    s0.445-1,0.995-1h11.128c0.55,0,0.995,0.447,0.995,1S107.925,118.972,107.374,118.972z M107.374,110.967H84.334    c-0.55,0-0.995-0.447-0.995-1s0.445-1,0.995-1h23.041c0.55,0,0.995,0.447,0.995,1S107.925,110.967,107.374,110.967z     M107.374,102.88H84.334c-0.55,0-0.995-0.447-0.995-1s0.445-1,0.995-1h23.041c0.55,0,0.995,0.447,0.995,1    S107.925,102.88,107.374,102.88z M106.263,83.693c-0.676,0-1.225-0.552-1.225-1.231v-5.291l7.101,6.522H106.263z"></path></g></g></svg></g></g></svg>