<svg xmlns="http://www.w3.org/2000/svg" xmlns:xlink="http://www.w3.org/1999/xlink" width="100" height="100" viewBox="0 0 100 100"><g><g transform="translate(50 50) scale(0.69 0.69) rotate(0) translate(-50 -50)" style="fill:#525866"><svg fill="#525866" xmlns:x="http://ns.adobe.com/Extensibility/1.0/" xmlns:i="http://ns.adobe.com/AdobeIllustrator/10.0/" xmlns:graph="http://ns.adobe.com/Graphs/1.0/" xmlns="http://www.w3.org/2000/svg" xmlns:xlink="http://www.w3.org/1999/xlink" version="1.1" x="0px" y="0px" viewBox="-255 347 100 100" style="enable-background:new -255 347 100 100;" xml:space="preserve"><g><g i:extraneous="self"><g><path d="M-205,411c13.2,0,24-10.7,24-24s-10.7-24-24-24s-24,10.7-24,24S-218.2,411-205,411z M-217.5,403c5.3-1.9,7.5-4.1,8.5-5.7     c1.1,0.4,2.3,0.7,3.7,0.7c0,0,0.1,0,0.1,0l0.1,0c0,0,0.1,0,0.1,0c0,0,0.1,0,0.1,0c1.5,0,2.8-0.3,3.9-0.8c0.9,1.7,3.2,3.9,8.6,5.8     c-3.5,2.7-7.8,4.3-12.5,4.3C-209.7,407.4-214.1,405.8-217.5,403z M-200.5,392.5c-1.1,1.3-2.6,1.9-4.6,1.9c0,0-0.1,0-0.1,0     c-2,0-3.5-0.6-4.6-1.9c-2.9-3.3-2.3-9.7-2.3-9.8c0,0,0-0.1,0-0.1c0.3-6.7,5.2-7.3,6.7-7.3c0.1,0,0.2,0,0.2,0c0,0,0.1,0,0.1,0     c1.1,0,6.6,0.1,6.9,7.2c0,0,0,0.1,0,0.1C-198,384.5-198.1,389.7-200.5,392.5z M-205,366.7c11.2,0,20.4,9.1,20.4,20.4     c0,5-1.9,9.6-4.9,13.2c-7-2.1-8.3-4.5-8.5-5.1c0.1-0.1,0.2-0.2,0.2-0.2c3.9-4.3,3.3-11.7,3.2-12.5c-0.4-8.6-6.8-10.8-10.5-10.6     c-3.8-0.1-10.1,2-10.5,10.6c-0.1,0.8-0.7,8.1,3.2,12.5c0.2,0.2,0.3,0.4,0.5,0.5c-0.4,0.8-2.1,2.9-8.4,4.8     c-3-3.6-4.9-8.2-4.9-13.2C-225.4,375.8-216.2,366.7-205,366.7z"></path><path d="M-187.8,417.8h-34.3c-1,0-1.8,0.8-1.8,1.8c0,1,0.8,1.8,1.8,1.8h34.3c1,0,1.8-0.8,1.8-1.8     C-186,418.6-186.8,417.8-187.8,417.8z"></path><path d="M-193.9,427.3h-22.3c-1,0-1.8,0.8-1.8,1.8c0,1,0.8,1.8,1.8,1.8h22.3c1,0,1.8-0.8,1.8-1.8     C-192.1,428.1-192.9,427.3-193.9,427.3z"></path></g></g></g></svg></g></g></svg>