<svg xmlns="http://www.w3.org/2000/svg" xmlns:xlink="http://www.w3.org/1999/xlink" width="100" height="100" viewBox="0 0 100 100"><g><g transform="translate(50 50) scale(0.69 0.69) rotate(0) translate(-50 -50)" style="fill:#525866"><svg fill="#525866" xmlns="http://www.w3.org/2000/svg" xmlns:xlink="http://www.w3.org/1999/xlink" version="1.1" x="0px" y="0px" viewBox="0 0 100 100" enable-background="new 0 0 100 100" xml:space="preserve"><path fill="none" stroke="#525866" stroke-width="3" stroke-linejoin="round" stroke-miterlimit="10" d="M75.442,87.889  c0,2.05-1.662,3.711-3.711,3.711H22.485c-2.049,0-3.711-1.661-3.711-3.711V16.626c0-2.049,1.662-3.711,3.711-3.711h1.093"></path><polyline fill="none" stroke="#525866" stroke-width="3" stroke-linejoin="round" stroke-miterlimit="10" points="65.139,9.03   65.075,23.468 80.298,23.468 "></polyline><path fill="none" stroke="#525866" stroke-width="3" stroke-linejoin="round" stroke-miterlimit="10" d="M80.298,22.746v61.258  c0,2.05-1.662,3.711-3.711,3.711H27.341c-2.049,0-3.711-1.661-3.711-3.711V12.741c0-2.049,1.662-3.711,3.711-3.711h37.797  L80.298,22.746z"></path><line display="none" fill="none" stroke="#525866" stroke-width="3" stroke-linejoin="round" stroke-miterlimit="10" x1="33.583" y1="42.125" x2="70.345" y2="42.125"></line><line display="none" fill="none" stroke="#525866" stroke-width="3" stroke-linejoin="round" stroke-miterlimit="10" x1="33.583" y1="49.813" x2="70.345" y2="49.813"></line><line display="none" fill="none" stroke="#525866" stroke-width="3" stroke-linejoin="round" stroke-miterlimit="10" x1="33.583" y1="57.501" x2="70.345" y2="57.501"></line><line fill="none" stroke="#525866" stroke-width="3" stroke-linejoin="round" stroke-miterlimit="10" x1="60.777" y1="68.271" x2="70.345" y2="68.271"></line><line fill="none" stroke="#525866" stroke-width="3" stroke-linejoin="round" stroke-miterlimit="10" x1="60.777" y1="75.07" x2="70.345" y2="75.07"></line><path fill="none" stroke="#525866" stroke-width="2.4" stroke-miterlimit="10" d="M68.136,47.098h-11.91v11.91h-9.306v-11.91h-11.91  v-9.306h11.91v-11.91h9.306v11.91h11.91V47.098z"></path><line fill="none" stroke="#525866" stroke-width="3" stroke-linejoin="round" stroke-miterlimit="10" x1="33.583" y1="68.271" x2="37.878" y2="68.271"></line><line fill="none" stroke="#525866" stroke-width="3" stroke-linejoin="round" stroke-miterlimit="10" x1="39.411" y1="68.271" x2="43.706" y2="68.271"></line></svg></g></g></svg>