<svg height='100px' width='100px'  fill="#525866" xmlns:x="http://ns.adobe.com/Extensibility/1.0/" xmlns:i="http://ns.adobe.com/AdobeIllustrator/10.0/" xmlns:graph="http://ns.adobe.com/Graphs/1.0/" xmlns="http://www.w3.org/2000/svg" xmlns:xlink="http://www.w3.org/1999/xlink" version="1.1" x="0px" y="0px" viewBox="0 0 100 100" style="enable-background:new 0 0 100 100;" xml:space="preserve"><g><g i:extraneous="self"><g><path d="M89.4,10.6c-10.8-10.8-28.5-10.8-39.3,0L10.6,50.1c-10.8,10.8-10.8,28.5,0,39.3s28.5,10.8,39.3,0l39.5-39.5     C100.2,39.1,100.2,21.4,89.4,10.6z M82.3,17.7c6.9,6.9,6.9,18.2,0,25.1L62.5,62.5L37.5,37.5l19.8-19.8     C64.1,10.8,75.4,10.8,82.3,17.7z"></path><path d="M51.7,36.3c1.6,1.6,4.3,1.6,5.9,0l4.5-4.5c5.3-5.3,7.6-6.7,10.9-4.4c1.9,1.3,4.5,0.8,5.8-1.1c1.3-1.9,0.8-4.5-1.1-5.8     c-9.6-6.4-17.4,1.3-21.5,5.5l-4.5,4.5C50.1,32,50.1,34.7,51.7,36.3z"></path></g></g></g></svg>