<svg xmlns="http://www.w3.org/2000/svg" xmlns:xlink="http://www.w3.org/1999/xlink" width="100" height="100" viewBox="0 0 100 100"><g><g transform="translate(50 50) scale(0.69 0.69) rotate(0) translate(-50 -50)" style="fill:#525866"><svg fill="#525866" xmlns="http://www.w3.org/2000/svg" data-name="Layer 1" viewBox="0 0 100 100" x="0px" y="0px"><title>Education </title><path d="M65,90V88h2v2Zm-2-2H6v2H63Zm8,0v2H94V88ZM33,94h2V92H33Zm4,0H94V92H37ZM6,94H29V92H6ZM19.65,19.83l1.41-1.42,1.41,1.42,1.42-1.42L22.47,17l1.42-1.41-1.42-1.42-1.41,1.42-1.41-1.42-1.42,1.42L19.65,17l-1.42,1.41ZM78,20h2V18h2V16H80V14H78v2H76v2h2ZM19,86h2V84h2V82H21V80H19v2H17v2h2Zm62.35-5.83-1.41,1.42-1.41-1.42-1.42,1.42L78.53,83l-1.42,1.41,1.42,1.42,1.41-1.42,1.41,1.42,1.42-1.42L81.35,83l1.42-1.41ZM65,66H39v2H65Zm0-4H35v2H65ZM37,66H35v2h2Zm28,4H39v2H65ZM37,70H35v2h2Zm28,4H39v2H65ZM37,74H35v2h2Zm2,6H65V78H39Zm-4,0h2V78H35Zm0-31h6V60H35Zm2,9h2V51H37Zm6-18h6V60H43Zm2,18h2V42H45Zm6-14h6V60H51Zm2,14h2V46H53Zm12,2H59V42h6ZM63,44H61V58h2ZM45.91,33.29l-8.54,6.93,1.26,1.56,7.46-6.07,7.85,4.58,6.67-3-.41,2,2,.41,1-4.9-4.89-1-.41,2,1,.21L54.06,38ZM70,61h2V59H70ZM31,86H69a3,3,0,0,0,3-3V63H70V83a1,1,0,0,1-1,1H31a1,1,0,0,1-1-1V25a1,1,0,0,1,1-1H69a1,1,0,0,1,1,1V55h2V25a3,3,0,0,0-3-3H31a3,3,0,0,0-3,3V83A3,3,0,0,0,31,86Z"></path></svg></g></g></svg>