<svg xmlns="http://www.w3.org/2000/svg" xmlns:xlink="http://www.w3.org/1999/xlink" width="100" height="100" viewBox="0 0 100 100"><g><g transform="translate(50 50) scale(0.69 0.69) rotate(0) translate(-50 -50)" style="fill:#525866"><svg fill="#525866" xmlns="http://www.w3.org/2000/svg" data-name="Layer 1" viewBox="0 0 100 100" x="0px" y="0px"><title>Artboard 107</title><path d="M36,49.58H60a5,5,0,0,0,5-5v-26a3,3,0,0,1,3-3v-2a5,5,0,0,0-5,5v26a3,3,0,0,1-6,0v-1H41v-25a3,3,0,0,1,3-3H60v-2H44a5,5,0,0,0-5,5v25H31v1A5,5,0,0,0,36,49.58Zm19.1-4a4.89,4.89,0,0,0,.92,2H36a3,3,0,0,1-2.83-2Z"></path><rect x="44" y="21.58" width="16" height="2"></rect><rect x="44" y="28.4" width="16" height="2"></rect><rect x="44" y="35.21" width="16" height="2"></rect><rect x="49" y="52.58" width="2" height="3"></rect><path d="M82.94,57.58h-2v2L69,65.34v5.92h-6V65.34L51,59.64V57.58H49v2L37,65.34v5.92H30.94V65.34L19,59.62v-2H17v2L5,65.34V79.17l13,6.19,13-6.19V73.26H37v5.91l13,6.19,13-6.19V73.26h6v5.91l13,6.19,13-6.19V65.34l-12-5.72Zm-64,8V61.84L27.66,66l-9.8,4.16L8.49,65.89l8.48-4v3.74ZM7,67.41,17,72V82.67L7,77.91ZM19,82.67V71.86l10-4.24V77.91ZM51,65.58V61.86L59.66,66l-9.8,4.16-9.37-4.26L49,61.83v3.75ZM39,67.41,49,72V82.67L39,77.91ZM51,82.67V71.86l10-4.24V77.91ZM71,67.41l10,4.54V82.67L71,77.91Zm12,15.26V71.86l10-4.24V77.91ZM91.63,66l-9.8,4.16-9.37-4.26,8.48-4v3.74h2V61.84Z"></path><path d="M73.55,55.08h16a3,3,0,0,0,0-6h-16a3,3,0,0,0,0,6Zm17-3a1,1,0,1,1-1-1A1,1,0,0,1,90.55,52.08Zm-17-1H86.73a3.05,3.05,0,0,0-.18,1,3,3,0,0,0,.18,1H73.55a1,1,0,0,1,0-2Z"></path><path d="M10,55.08H26a3,3,0,0,0,0-6H10a3,3,0,1,0,0,6Zm17-3a1,1,0,1,1-1-1A1,1,0,0,1,27,52.08Zm-17-1H23.15a3.05,3.05,0,0,0-.18,1,3,3,0,0,0,.18,1H10a1,1,0,1,1,0-2Z"></path></svg></g></g></svg>