<svg xmlns="http://www.w3.org/2000/svg" xmlns:xlink="http://www.w3.org/1999/xlink" width="100" height="100" viewBox="0 0 100 100"><g><g transform="translate(50 50) scale(0.69 0.69) rotate(0) translate(-50 -50)" style="fill:#525866"><svg fill="#525866" xmlns="http://www.w3.org/2000/svg" data-name="Layer 1" viewBox="0 0 100 100" x="0px" y="0px"><title>Artboard 1</title><path d="M88.89,45A4,4,0,0,0,85,48H75.89v7.5h-3v-25H84a4,4,0,1,0,0-2H72.89v-17h-45v17h-7.5V21.36a4,4,0,1,0-2,0V30.5h9.5V48H17.25a4,4,0,1,0,0,2H27.89V66h-5.5v7.5H16.75a4,4,0,1,0,0,2h7.64V68h3.5V82h45V69.5h9v7.64a4,4,0,1,0,2,0V67.5h-11v-10h5V50H85a4,4,0,1,0,3.85-5Zm-1-17.5a2,2,0,1,1-2,2A2,2,0,0,1,87.89,27.5Zm-70.5-10a2,2,0,1,1,2,2A2,2,0,0,1,17.39,17.5Zm-4,33.5a2,2,0,1,1,2-2A2,2,0,0,1,13.39,51Zm-.5,25.5a2,2,0,1,1,2-2A2,2,0,0,1,12.89,76.5Zm72,4.5a2,2,0,1,1-2-2A2,2,0,0,1,84.89,81Zm-55-67.5h41V23h-41Zm41,66.5h-41V25h41Zm18-29a2,2,0,1,1,2-2A2,2,0,0,1,88.89,51Z"></path><rect x="36.89" y="37.5" width="27" height="2"></rect><rect x="36.89" y="45" width="27" height="2"></rect><rect x="36.89" y="52.5" width="27" height="2"></rect><rect x="36.89" y="69" width="13.5" height="2"></rect><rect x="62.39" y="16" width="6" height="3"></rect><path d="M59.39,58.5a5.5,5.5,0,1,0,5.5,5.5A5.51,5.51,0,0,0,59.39,58.5Zm0,9a3.5,3.5,0,1,1,3.5-3.5A3.5,3.5,0,0,1,59.39,67.5Z"></path><polygon points="59.8 70.75 61.84 74.3 63.11 72.39 65.39 72.25 63.34 68.7 59.8 70.75"></polygon><polygon points="53.39 72.25 55.68 72.39 56.94 74.3 58.99 70.75 55.44 68.7 53.39 72.25"></polygon><rect x="60.89" y="84" width="9" height="2"></rect><rect x="60.89" y="88.5" width="9" height="2"></rect></svg></g></g></svg>