<svg height='100px' width='100px'  fill="#525866" xmlns="http://www.w3.org/2000/svg" data-name="Layer 1" viewBox="0 0 100 100" x="0px" y="0px"><title>8</title><g data-name="Group"><path data-name="Compound Path" d="M83.5,5.4h-55a3,3,0,0,0-3,3v8.8h-9a3,3,0,0,0-3,3V91.5a3,3,0,0,0,1.8,2.7l1.2.3a3,3,0,0,0,2-.8l7-6.5,7.2,6.5a3,3,0,0,0,4,0L44,87.3l7.2,6.5a3,3,0,0,0,4,0l7.2-6.5,7,6.5a3,3,0,0,0,5-2.2v-16l7,6.4a3,3,0,0,0,2,.8l1.2-.3a3,3,0,0,0,1.8-2.7V8.4A3,3,0,0,0,83.5,5.4Zm-54.9,30H47.4v6H28.6Zm30.8,32H28.6v-6H59.4Zm0-13H28.6v-6H59.4ZM80.5,72.9l-4-3.7a3,3,0,0,0-2-.8V20.2a3,3,0,0,0-3-3h-40V11.4h49Z"></path></g></svg>