<svg height='100px' width='100px'  fill="#525866" xmlns="http://www.w3.org/2000/svg" data-name="Layer 1" viewBox="0 0 100 100" x="0px" y="0px"><title>8</title><g data-name="Group"><path data-name="Path" d="M31.6,40.5H44.4a2,2,0,0,0,0-4H31.6a2,2,0,0,0,0,4Z"></path><path data-name="Path" d="M56.4,49.5H31.6a2,2,0,0,0,0,4H56.4a2,2,0,0,0,0-4Z"></path><path data-name="Path" d="M56.4,62.5H31.6a2,2,0,0,0,0,4H56.4a2,2,0,1,0,0-4Z"></path><path data-name="Compound Path" d="M85.5,79.8V14.5a8,8,0,0,0-8-8h-43a8,8,0,0,0-8,8v3.8h-4a8,8,0,0,0-8,8V91.6A2,2,0,0,0,17.9,93l7.7-7.1L33.4,93a2,2,0,0,0,2.7,0L44,85.9,51.9,93a2,2,0,0,0,2.7,0l7.9-7.1L70.1,93a2,2,0,0,0,1.4.5l.8-.2a2,2,0,0,0,1.2-1.8V75.1l1-.9,7.7,7.1a2,2,0,0,0,1.4.5l.8-.2A2,2,0,0,0,85.5,79.8ZM69.5,87l-5.6-5.2a2,2,0,0,0-2.7,0l-7.9,7.1-7.9-7.1a2,2,0,0,0-2.7,0l-7.9,7.1-7.9-7.1a2,2,0,0,0-2.7,0L18.5,87V26.2a4,4,0,0,1,4-4h43a4,4,0,0,1,4,4Zm12-11.8L75.8,70a2,2,0,0,0-2.4-.3V26.2a8,8,0,0,0-8-8h-35V14.5a4,4,0,0,1,4-4h43a4,4,0,0,1,4,4Z"></path></g></svg>