<svg height='100px' width='100px'  fill="#000000" xmlns="http://www.w3.org/2000/svg" xmlns:xlink="http://www.w3.org/1999/xlink" version="1.1" x="0px" y="0px" viewBox="0 0 64 64" style="enable-background:new 0 0 64 64;" xml:space="preserve"><g><path d="M63,1H19v38.017C18.885,39.014,18.772,39,18.657,39c-2.603,0-5.098,0.8-7.215,2.312L9,43.057V41H1v22h8v-2.486l3.974-2.838   C14.509,56.579,16.317,56,18.205,56h19.652c2.938,0,5.701-1.145,7.778-3.222l6.036-6.036c0.226-0.225,0.417-0.477,0.589-0.742H63V1   z M61,9H48V3h13V9z M36,11h10v5.719l-2.497-2l-2.499,2.001l-2.502-2l-2.502,2V11z M36,9V3h10v6H36z M34,3v6H21V3H34z M7,61H3V43h4   V61z M44.222,51.364c-1.7,1.699-3.96,2.636-6.364,2.636H18.205c-2.307,0-4.518,0.708-6.394,2.049L9,58.057V45.514l3.604-2.575   c2.931-2.093,6.848-2.516,10.155-1.098l2.692,1.154C27.006,43.662,28.651,44,30.343,44H35c1.103,0,2,0.897,2,2s-0.897,2-2,2H18v2   h17c2.206,0,4-1.794,4-4h10.586L44.222,51.364z M46,44h-7.556c-0.53-0.909-1.401-1.587-2.444-1.858v-4.861l2.497,2l2.499-2.001   l2.502,2l2.502-2V44z M48,44v-9h-2.351l-2.151,1.72l-2.502-2l-2.499,1.999L36.352,35H34v7h-3.657c-1.419,0-2.8-0.283-4.103-0.842   l-2.692-1.154C22.723,39.65,21.87,39.396,21,39.229V11h13v8h2.351l2.151-1.72l2.502,2l2.499-1.999L45.648,19H48v-8h13v33H48z"></path><path d="M43,33h16V23H43V33z M45,25h12v6H45V25z"></path><rect x="47" y="27" width="8" height="2"></rect></g></svg>