<svg xmlns="http://www.w3.org/2000/svg" xmlns:xlink="http://www.w3.org/1999/xlink" width="100" height="100" viewBox="0 0 100 100"><g><g transform="translate(50 50) scale(0.69 0.69) rotate(0) translate(-50 -50)" style="fill:#525866"><svg fill="#525866" xmlns="http://www.w3.org/2000/svg" xmlns:xlink="http://www.w3.org/1999/xlink" version="1.1" x="0px" y="0px" viewBox="0 0 100 100" style="enable-background:new 0 0 100 100;" xml:space="preserve"><path d="M50.6,9C27.6,9,9.1,27.6,9.1,50.5S27.6,92,50.6,92s41.5-18.6,41.5-41.5S73.5,9,50.6,9z M75.8,31.8L51.6,71.6  c-0.4,0.7-1.2,0.8-1.8,0.4l-6.7-4.5L36.4,72c-0.5,0.4-1.3,0-1.3-0.7V62l30.7-23L29.6,58.3l-8-5.5c-0.9-0.6-0.7-1.9,0.3-2.3  l53.5-19.3C75.7,31,76.1,31.5,75.8,31.8z"></path></svg></g></g></svg>