<svg xmlns="http://www.w3.org/2000/svg" xmlns:xlink="http://www.w3.org/1999/xlink" width="100" height="100" viewBox="0 0 100 100">
  <g>
    <g transform="translate(50 50) scale(0.69 0.69) rotate(0) translate(-50 -50)" style="fill:#525866">
      <svg fill="#525866" xmlns="http://www.w3.org/2000/svg" viewBox="0 0 64 64" x="0px" y="0px">
        <g>
          <path
            d="M57.01,10h-1v2h1a3,3,0,0,1,3,3V42H58v2h2.01v2A3.012,3.012,0,0,1,58.5,48.6l1,1.734A5.016,5.016,0,0,0,62.01,46V15A5.006,5.006,0,0,0,57.01,10Z"></path>
          <path
            d="M2.01,46a5.006,5.006,0,0,0,5,5H25.582l-3.273,9h-3.3v2h26V60h-3.3l-1.215-3.342-1.88.684L39.582,60H24.437l3.513-9.658A1,1,0,0,0,27.01,49h-20a3,3,0,0,1-3-3L4,44H23.01V42H4l.01-27a3,3,0,0,1,3-3h1V10h-1a5.006,5.006,0,0,0-5,5L2,43H2v0Z"></path>
          <path d="M54.01,25V7a5.006,5.006,0,0,0-5-5h-34a5.006,5.006,0,0,0-5,5V40h2V7a3,3,0,0,1,3-3h34a3,3,0,0,1,3,3V25Z"></path>
          <rect x="15.01" y="6" width="2" height="2"></rect>
          <rect x="19.01" y="6" width="2" height="2"></rect>
          <rect x="23.01" y="6" width="2" height="2"></rect>
          <path d="M23.01,34V26a1,1,0,0,0-1-1h-4a1,1,0,0,0-1,1v7h-2v2h8Zm-2-1h-2V27h2Z"></path>
          <path d="M31.01,24V19a1,1,0,0,0-1-1h-4a1,1,0,0,0-1,1v9h2V20h2v4Z"></path>
          <path d="M39.01,21V18a1,1,0,0,0-1-1h-4a1,1,0,0,0-1,1v4h2V19h2v2Z"></path>
          <path d="M47.01,21V15a1,1,0,0,0-1-1h-4a1,1,0,0,0-1,1v6h2V16h2v5Z"></path>
          <path
            d="M53.884,48.46a16.06,16.06,0,1,0-5.907,4.921l7.5,7.5A3.853,3.853,0,0,0,58.18,62a3.834,3.834,0,0,0,3.83-3.83,3.854,3.854,0,0,0-1.123-2.707ZM41.01,53a14,14,0,1,1,14-14A14.015,14.015,0,0,1,41.01,53Zm18.464,6.463a1.879,1.879,0,0,1-2.587,0l-7.1-7.1A16.087,16.087,0,0,0,52.6,50l6.876,6.876a1.843,1.843,0,0,1,.537,1.293A1.822,1.822,0,0,1,59.474,59.463Z"></path>
          <path d="M41.01,27a12,12,0,1,0,12,12A12.013,12.013,0,0,0,41.01,27Zm0,22a10,10,0,1,1,10-10A10.011,10.011,0,0,1,41.01,49Z"></path>
          <path d="M39.3,33.249A6.01,6.01,0,0,1,41.01,33V31a8,8,0,0,0-2.285.331Z"></path>
          <path d="M33.01,39h2a6.007,6.007,0,0,1,2.572-4.925l-1.144-1.64A8.008,8.008,0,0,0,33.01,39Z"></path>
          <rect x="15.01" y="37" width="4" height="2"></rect>
          <rect x="21.01" y="37" width="2" height="2"></rect>
          <rect x="15.01" y="10" width="34" height="2"></rect>
          <rect x="15.01" y="14" width="4" height="2"></rect>
        </g>
      </svg>
    </g>
  </g>
</svg>
