<svg xmlns="http://www.w3.org/2000/svg" xmlns:xlink="http://www.w3.org/1999/xlink" width="100" height="100" viewBox="0 0 100 100"><g><g transform="translate(50 50) scale(0.69 0.69) rotate(0) translate(-50 -50)" style="fill:#525866"><svg fill="#525866" xmlns="http://www.w3.org/2000/svg" data-name="Layer 1" viewBox="0 0 100 100" x="0px" y="0px"><title>Education </title><path d="M24,85H38V75H24Zm2-8H36v6H26ZM38,61H24V71H38Zm-2,8H26V63H36Zm2-22H24V57H38Zm-2,8H26V49H36ZM62,85H76V75H62Zm2-8H74v6H64ZM76,61H62V71H76Zm-2,8H64V63H74Zm2-22H62V57H76Zm-2,8H64V49H74ZM57,64V54H43V64ZM45,56H55v6H45ZM24,42H19V90H81V60H79V88H57V71H43V88H21V44H79v8h2V42H76V38H59V24.77a1,1,0,0,0-.29-.71L50.63,16H51V11.39l6.35-1.86a1,1,0,0,0,.72-.9,1,1,0,0,0-.6-1L50.4,4.58a1,1,0,0,0-.95.08A1,1,0,0,0,49,5.5V16h.07l-8.78,8.77a1,1,0,0,0-.29.71V38H24ZM45,73H55V88H45ZM51,6.77l3.14,1.37L51,9.06ZM42,25.89,49.85,18,57,25.18V38H42ZM26,40H74v2H26ZM49.5,24.75a6,6,0,1,0,6,6A6,6,0,0,0,49.5,24.75Zm0,10a4,4,0,1,1,4-4A4,4,0,0,1,49.5,34.75Zm1-4.75h1v2h-3V29h2ZM79,56h2v2H79ZM17.73,24.41,19.15,23l-1.42-1.41,1.42-1.42,1.41,1.42L22,20.17l1.41,1.42L22,23l1.42,1.41L22,25.83l-1.42-1.42-1.41,1.42ZM78,24H76V22h2V20h2v2h2v2H80v2H78ZM12,86H10V84h2V82h2v2h2v2H14v2H12Zm71.17.41L84.59,85l-1.42-1.41,1.42-1.42L86,83.59l1.41-1.42,1.42,1.42L87.41,85l1.42,1.41-1.42,1.42L86,86.41l-1.41,1.42ZM33,92h2v2H33Zm61,0v2H37V92ZM6,92H29v2H6Z"></path></svg></g></g></svg>