<svg height='100px' width='100px'  fill="#000000" xmlns="http://www.w3.org/2000/svg" xmlns:xlink="http://www.w3.org/1999/xlink" version="1.1" x="0px" y="0px" viewBox="0 0 500 500" enable-background="new 0 0 500 500" xml:space="preserve"><g><g><g><path d="M310.3,201.8c0,3.3-0.1,6.5-0.4,9.8c-0.1,1.4-0.3,2.8-0.4,4.1c-0.1,1.3-0.9,3.5,0.2-1.2     c-0.2,0.9-0.3,1.8-0.4,2.7c-1,6.2-2.5,12.4-4.5,18.4c-0.9,2.8-2,5.4-3,8.2c-0.9,2.5,1.6-3.5,0.5-1.1c-0.3,0.6-0.5,1.2-0.8,1.8     c-0.7,1.6-1.5,3.2-2.3,4.8c-2.8,5.5-6,10.8-9.5,15.8c-0.5,0.7-1.6,2.9-2.3,3.2c1.2-0.5,2.4-2.9,0.7-0.9c-0.4,0.5-0.8,1-1.2,1.5     c-2.1,2.5-4.3,5-6.6,7.3c-2,2-4,4-6.1,5.9c-1.1,1-2.3,2-3.5,3c-0.5,0.4-1,0.8-1.5,1.3c-0.3,0.3-0.7,0.6-1,0.8     c-1.2,0.9-0.7,0.6,1.5-1.1c-0.6,1.6-5.6,4-7,4.9c-2.6,1.7-5.2,3.3-7.9,4.8c-2.7,1.5-5.5,2.9-8.3,4.2c-0.6,0.3-1.2,0.5-1.8,0.8     c-2.5,1.2,0.5,0.5,1.1-0.5c-0.5,0.8-3.5,1.4-4.4,1.7c-5.9,2.2-12,3.9-18.1,5.1c-1.6,0.3-3.1,0.6-4.7,0.9c-0.7,0.1-1.4,0.2-2,0.3     c-2.8,0.5,4-0.4,1.2-0.2c-3.2,0.3-6.5,0.6-9.7,0.7c-6.6,0.3-13-0.2-19.6-0.7c-2.3-0.2,1.9,0.3,1.9,0.3c-0.9-0.2-1.8-0.3-2.7-0.4     c-1.3-0.2-2.7-0.5-4-0.7c-3.3-0.7-6.6-1.4-9.9-2.4c-2.8-0.8-5.6-1.7-8.3-2.7c-1.5-0.5-2.9-1.2-4.4-1.7c-2.2-0.8,1.8,0.7,1.7,0.7     c-0.6,0.1-2.4-1.1-3-1.4c-5.6-2.6-11-5.6-16.1-9c-1.5-1-6.4-3.2-7-4.9c0.1,0.2,3.8,3.1,0.9,0.7c-0.5-0.4-1-0.8-1.5-1.2     c-1.3-1.1-2.7-2.3-4-3.4c-4.4-4-8.5-8.2-12.3-12.7c-0.4-0.5-3.6-4.6-1.7-2.1c1.9,2.6-1.1-1.6-1.6-2.2c-1.8-2.5-3.5-5.1-5-7.7     c-1.6-2.6-3.1-5.3-4.5-8.1c-0.6-1.2-1.2-2.4-1.7-3.6c-0.4-0.8-0.7-1.6-1.1-2.4c-1.3-2.7,0,0.8,0.5,1.1c-1.4-0.8-2.7-7.3-3.2-8.8     c-1-3-1.8-6-2.6-9.1c-0.8-3.1-1.4-6.2-1.9-9.3c-0.1-0.7-0.2-1.4-0.3-2c-0.4-2.3,0.3,1.9,0.3,1.9c0.1-1.8-0.4-3.8-0.5-5.5     c-0.5-6.5-0.5-13.1,0-19.6c0.1-1.6,0.3-3.2,0.5-4.8c0.2-2.3-0.3,2-0.3,1.9c-0.1-0.5,0.4-2.4,0.4-2.7c0.5-3.1,1.1-6.2,1.9-9.3     c0.7-2.8,1.5-5.7,2.4-8.4c0.5-1.7,1.9-8.5,3.4-9.4c0.1,0-1.7,3.8-0.7,1.7c0.4-0.8,0.7-1.6,1.1-2.4c0.6-1.2,1.1-2.4,1.7-3.6     c1.5-3,3.1-5.8,4.8-8.7c1.5-2.4,3-4.8,4.7-7.2c0.6-0.9,1.8-3.4,2.7-3.7c0.1,0-2.6,3.2-1.1,1.5c0.7-0.8,1.4-1.7,2.1-2.5     c3.9-4.7,8.2-9.1,12.8-13.2c1-0.9,2-1.7,3-2.6c0.7-0.6,4.4-3.5,2.1-1.7c-2.5,1.9,1.7-1.2,2.2-1.6c1.4-1,2.9-2,4.4-2.9     c5-3.2,10.2-6.1,15.6-8.6c0.8-0.4,1.6-0.7,2.4-1.1c2-1-1.8,0.8-1.7,0.7c0.4-0.7,3.7-1.4,4.4-1.7c2.9-1.1,5.9-2,8.9-2.9     c3-0.9,6.1-1.6,9.2-2.2c1.3-0.3,2.7-0.5,4-0.8c0.9-0.2,1.8-0.3,2.7-0.4c2.7-0.5-4,0.4-1.2,0.2c6.5-0.6,13-1,19.6-0.7     c3,0.1,6,0.4,9,0.7c3.6,0.3-4-0.7,0.8,0.1c1.8,0.3,3.6,0.6,5.4,1c6.2,1.3,12.2,3,18.1,5.1c0.8,0.3,4,1,4.4,1.7     c0,0.1-3.8-1.7-1.7-0.7c0.6,0.3,1.2,0.5,1.8,0.8c3,1.4,6,2.9,8.9,4.5c2.5,1.4,4.9,2.9,7.3,4.4c1.3,0.8,2.6,1.7,3.8,2.6     c0.7,0.5,5.2,3.7,2.7,1.9c-2.4-1.8,1,0.8,1.6,1.3c1.2,1,2.3,2,3.5,3c2.4,2.2,4.8,4.5,7.1,6.8c2,2,3.9,4.2,5.7,6.3     c0.5,0.6,3.6,4.6,1.7,2.1c-1.8-2.4,1.1,1.5,1.6,2.2c3.6,5,6.7,10.3,9.5,15.8c0.7,1.4,1.4,2.8,2,4.2c0.3,0.6,0.5,1.2,0.8,1.8     c1.6,3.4-0.3-1-0.5-1.1c1.6,0.9,2.6,7,3.2,8.8c1.9,6,3.4,12.2,4.5,18.4c0.1,0.9,0.2,1.8,0.4,2.7c0,0-0.5-4.2-0.3-1.9     c0.1,1.6,0.3,3.2,0.5,4.8C310.1,195.3,310.3,198.6,310.3,201.8c0.1,10.5,9.2,20.5,20,20c10.8-0.5,20.1-8.8,20-20     c-0.3-62.1-39.7-117-97.6-138.5c-56.3-20.9-123.8-2.7-162,43.7c-19.9,24.3-31.7,53-34.3,84.3c-2.4,29.8,5.1,60.7,20.6,86.3     c14.9,24.7,37.5,45.6,63.8,57.5c29.2,13.2,60.9,17,92.4,10.8c57.8-11.4,105.9-60.9,114.9-119.3c1.3-8.2,2.1-16.4,2.2-24.7     c0.1-10.5-9.2-20.5-20-20C319.4,182.3,310.3,190.6,310.3,201.8z"></path></g></g><g><g><path d="M277.6,307.5c14.8,14.8,29.6,29.6,44.4,44.4c23.7,23.7,47.5,47.5,71.2,71.2c5.4,5.4,10.9,10.9,16.3,16.3     c7.4,7.4,21,8,28.3,0c7.3-8,7.9-20.4,0-28.3c-14.8-14.8-29.6-29.6-44.4-44.4c-23.7-23.7-47.5-47.5-71.2-71.2     c-5.4-5.4-10.9-10.9-16.3-16.3c-7.4-7.4-21-8-28.3,0C270.3,287.2,269.7,299.6,277.6,307.5L277.6,307.5z"></path></g></g></g></svg>