<svg fill="#525866" xmlns="http://www.w3.org/2000/svg" xmlns:xlink="http://www.w3.org/1999/xlink" height="100" width="100" viewBox="0 0 65 65">
  <g transform="translate(-17.5,-17.5)">
      <path d="M50,81.625 C32.5339948,81.625 18.375,67.4660052 18.375,50 C18.375,32.5339948 32.5339948,18.375 50,18.375 C67.4660052,18.375 81.625,32.5339948 81.625,50 C81.625,67.4660052 67.4660052,81.625 50,81.625 Z M40.2464941,48.5919474 L46.0456268,54.068906 L57.3425911,39.5442375 C58.6988713,37.8004488 61.2119737,37.486311 62.9557625,38.8425911 C64.6995512,40.1988713 65.013689,42.7119737 63.6574089,44.4557625 L49.6574089,62.4557625 C48.2083232,64.3188727 45.469477,64.528692 43.7535059,62.9080526 L34.7535059,54.4080526 C33.1474328,52.8912058 33.0751006,50.359579 34.5919474,48.7535059 C36.1087942,47.1474328 38.640421,47.0751006 40.2464941,48.5919474 Z M50,74.375 C63.4619408,74.375 74.375,63.4619408 74.375,50 C74.375,36.5380592 63.4619408,25.625 50,25.625 C36.5380592,25.625 25.625,36.5380592 25.625,50 C25.625,63.4619408 36.5380592,74.375 50,74.375 Z"></path>
  </g>
</svg>
