<svg xmlns="http://www.w3.org/2000/svg" xmlns:xlink="http://www.w3.org/1999/xlink" width="100" height="100" viewBox="0 0 100 100"><g><g transform="translate(50 50) scale(0.69 0.69) rotate(0) translate(-50 -50)" style="fill:#525866"><svg fill="#525866" xmlns:dc="http://purl.org/dc/elements/1.1/" xmlns:cc="http://creativecommons.org/ns#" xmlns:rdf="http://www.w3.org/1999/02/22-rdf-syntax-ns#" xmlns:svg="http://www.w3.org/2000/svg" xmlns="http://www.w3.org/2000/svg" xmlns:sodipodi="http://sodipodi.sourceforge.net/DTD/sodipodi-0.dtd" xmlns:inkscape="http://www.inkscape.org/namespaces/inkscape" version="1.1" x="0px" y="0px" viewBox="0 0 100 100"><g transform="translate(0,-952.36218)"><path style="color:#000000;enable-background:accumulate;" d="m 50,971.36217 c 6.3981,0 12.8059,2.43101 17.6875,7.3125 4.143,4.143 6.5293,9.38065 7.1563,14.78125 C 85.0311,994.38082 93,1002.934 93,1013.3622 c 0,11.0456 -8.9544,20 -20,20 l -49,0 c -9.418,0 -16.9999999,-7.582 -16.9999999,-17 0,-9.418 7.5819999,-17.00003 16.9999999,-17.00003 l 1.1875,0 c -0.8812,-7.3544 1.5124,-15.04369 7.1563,-20.6875 4.8813,-4.88149 11.2581,-7.3125 17.6562,-7.3125 z m 0,21 c -0.5308,-0.002 -0.9035,0.0977 -1.3438,0.5 l -11,10.00003 c -0.7825,0.7022 -0.9263,2.0724 -0.1562,2.8437 0.7428,0.7441 2.0674,0.8338 2.8438,0.125 L 48,998.86217 l 0,21.50003 c 0,1.1046 0.8952,2 2,2 1.1048,0 2,-0.8954 2,-2 l 0,-21.50003 7.6562,6.96873 c 0.7764,0.7088 2.1381,0.6543 2.8438,-0.125 0.7056,-0.7794 0.6657,-2.1283 -0.1562,-2.8437 l -11,-10.00003 c -0.2858,-0.2618 -0.8089,-0.49 -1.3438,-0.5 z" fill="#525866" stroke="none" marker="none" visibility="visible" display="inline" overflow="visible"></path></g></svg></g></g></svg>