<svg height='100px' width='100px'  fill="#000000" xmlns:dc="http://purl.org/dc/elements/1.1/" xmlns:cc="http://creativecommons.org/ns#" xmlns:rdf="http://www.w3.org/1999/02/22-rdf-syntax-ns#" xmlns:svg="http://www.w3.org/2000/svg" xmlns="http://www.w3.org/2000/svg" xmlns:sodipodi="http://sodipodi.sourceforge.net/DTD/sodipodi-0.dtd" xmlns:inkscape="http://www.inkscape.org/namespaces/inkscape" version="1.1" x="0px" y="0px" viewBox="0 0 100 100"><g transform="translate(0,-952.36218)"><path style="text-indent:0;text-transform:none;direction:ltr;block-progression:tb;baseline-shift:baseline;color:#000000;enable-background:accumulate;" d="m 46.9375,6 c -1.12407,0.0345 -2.01214,0.89291 -2.34375,1.53125 -0.33161,0.63834 -0.434496,1.19437 -0.5,1.6875 -0.03607,0.27154 -0.05049,0.45974 -0.0625,0.6875 -0.513412,0.49291 -1.000388,1.19201 -1.03125,2 -3.83e-4,0.0107 2.45e-4,0.02065 0,0.03125 -0.02137,0.92958 0.500043,1.73568 1,2.1875 l 0,16.9375 c -1.680371,1.25381 -3.228963,2.84452 -4.4375,4.59375 C 38.115622,37.75051 37,39.78581 37,42 l 0,46 c 0,2.0679 1.443299,3.6255 3.09375,4.5625 C 41.744201,93.4995 43.783012,94 46,94 l 8,0 c 2.216988,0 4.255799,-0.5005 5.90625,-1.4375 C 61.556701,91.6255 63,90.0679 63,88 L 63,42 C 63,39.78581 61.884378,37.75046 60.4375,35.65625 59.228963,33.90702 57.680371,32.31631 56,31.0625 L 56,14.125 c 0.499954,-0.45181 1.021373,-1.25792 1,-2.1875 -2.38e-4,-0.01 3.77e-4,-0.02145 0,-0.03125 -0.03086,-0.80799 -0.517837,-1.50709 -1.03125,-2 -0.01201,-0.22776 -0.02643,-0.41596 -0.0625,-0.6875 -0.0655,-0.49313 -0.168387,-1.04916 -0.5,-1.6875 C 55.074637,6.89291 54.186561,6.03453 53.0625,6 c -2.108787,-1.496e-4 -4.259379,-2.42e-5 -6.125,0 z m 1.09375,4 c 1.417068,-3e-5 2.785432,-4e-5 3.9375,0 0.01462,0.18303 0.02855,0.36625 0.03125,0.53125 0.002,0.12153 -9.79e-4,0.24068 0,0.34375 4.89e-4,0.0515 -0.0044,0.10195 0,0.1875 0.0022,0.0428 -0.0157,0.0749 0,0.1875 0.0078,0.0563 0.02469,0.11281 0.0625,0.25 0.0189,0.0686 0.03753,0.15436 0.09375,0.28125 0.02389,0.0539 0.07359,0.18201 0.09375,0.21875 -0.168308,0.304035 -0.255431,0.65253 -0.25,1 l 0,19 c 0.0089,0.677297 0.388366,1.338264 0.96875,1.6875 1.350113,0.82447 2.996084,2.52555 4.1875,4.25 C 58.347666,39.66195 59,41.59369 59,42 l 0,34 -1,0 c -0.06245,-0.0029 -0.125046,-0.0029 -0.1875,0 -1.047341,0.04888 -1.955743,1.046438 -1.906649,2.093769 C 55.954944,79.1411 56.952679,80.049303 58,80 l 1,0 0,2 -4,0 c -0.06245,-0.0029 -0.125046,-0.0029 -0.1875,0 -1.047341,0.04888 -1.955743,1.046438 -1.906649,2.093769 C 52.954944,85.1411 53.952679,86.049303 55,86 l 4,0 0,2 c 0,0.1461 -0.165138,0.58425 -1.0625,1.09375 C 57.040138,89.60315 55.591762,90 54,90 l -8,0 C 44.408238,90 42.959862,89.60315 42.0625,89.09375 41.165138,88.58425 41,88.1461 41,88 l 0,-46 c 0,-0.40631 0.652334,-2.33805 1.84375,-4.0625 1.191416,-1.72445 2.837387,-3.42553 4.1875,-4.25 C 47.611634,33.338264 47.991078,32.677297 48,32 l 0,-19 c 7.6e-5,-0.337074 -0.08682,-0.673806 -0.25,-0.96875 8.78e-4,-0.002 -0.0024,-0.02695 0,-0.03125 0.02017,-0.0368 0.06984,-0.1648 0.09375,-0.21875 C 47.90001,11.6543 47.91859,11.56861 47.9375,11.5 47.97533,11.36277 47.99215,11.30632 48,11.25 c 0.0157,-0.11264 -0.0022,-0.14472 0,-0.1875 0.0044,-0.0856 -4.89e-4,-0.13597 0,-0.1875 9.79e-4,-0.10306 -0.002,-0.22222 0,-0.34375 0.0027,-0.165 0.01663,-0.34822 0.03125,-0.53125 z m -25.0625,5 c -0.844919,0.0198 -1.747871,0.49898 -2.1875,1.0625 -0.439629,0.56352 -0.571257,1.10559 -0.65625,1.53125 -0.02315,0.11595 -0.01727,0.1769 -0.03125,0.28125 -0.470944,0.39837 -1.049902,1.06696 -1.09375,2.0625 -5.85e-4,0.0124 4.33e-4,0.01905 0,0.03125 -0.03888,1.10362 0.536297,1.74631 1,2.15625 l 0,11.8125 c -1.625146,0.98528 -3.128029,2.20203 -4.3125,3.59375 C 14.215529,39.26083 13,40.81529 13,43 l 0,35 c 0,1.0523 0.539115,1.97375 1.15625,2.59375 0.617135,0.6199 1.31951,1.034 2.125,1.375 C 17.89223,82.65055 19.865768,83 22,83 l 9,0 c 1.056625,0.01494 2.028484,-0.943269 2.028484,-2 0,-1.056731 -0.971859,-2.014943 -2.028484,-2 l -9,0 c -1.674518,0 -3.219417,-0.32225 -4.15625,-0.71875 -0.448772,-0.1899 -0.731167,-0.3939 -0.84375,-0.5 L 17,43 c 0,0.18814 0.552427,-1.5046 1.71875,-2.875 1.166323,-1.3704 2.797515,-2.69486 4.125,-3.3125 C 23.529684,36.493275 23.999646,35.756577 24,35 l 0,-14 c 0.0015,-0.360684 -0.09682,-0.721283 -0.28125,-1.03125 0.03309,-0.0619 0.129372,-0.18191 0.15625,-0.25 0.06646,-0.16836 0.07836,-0.26818 0.09375,-0.34375 0.03078,-0.15114 0.02724,-0.19695 0.03125,-0.25 0.0046,-0.0606 -7.08e-4,-0.0944 0,-0.125 1.437665,-2e-5 2.835679,10e-6 4,0 7.08e-4,0.0306 -0.0046,0.0644 0,0.125 0.004,0.053 4.79e-4,0.0989 0.03125,0.25 0.01538,0.0756 0.02732,0.17544 0.09375,0.34375 0.02687,0.0681 0.123173,0.18811 0.15625,0.25 C 28.096817,20.278717 27.998472,20.639316 28,21 l 0,14 c 3.54e-4,0.756577 0.470316,1.493275 1.15625,1.8125 0.681389,0.31703 1.691556,1.02019 2.53125,1.75 0.79354,0.687492 2.141136,0.59085 2.828455,-0.202839 C 35.203274,37.565971 35.10634,36.218396 34.3125,35.53125 33.620401,34.92972 32.796941,34.46685 32,33.96875 L 32,22.125 c 0.463692,-0.40991 1.038878,-1.05263 1,-2.15625 -3.52e-4,-0.0111 4.87e-4,-0.02025 0,-0.03125 C 32.95616,18.94195 32.377192,18.27337 31.90625,17.875 31.89227,17.77065 31.89815,17.7097 31.875,17.59375 31.79001,17.16808 31.658386,16.62604 31.21875,16.0625 30.779114,15.49896 29.876197,15.01974 29.03125,15 c -2.081257,-2e-6 -4.224848,-1.6e-5 -6.0625,0 z m 48,0 c -0.844927,0.0197 -1.747855,0.49897 -2.1875,1.0625 -0.439645,0.56353 -0.571257,1.10559 -0.65625,1.53125 -0.02315,0.11595 -0.01727,0.1769 -0.03125,0.28125 -0.470942,0.39837 -1.049907,1.06695 -1.09375,2.0625 -5.85e-4,0.0124 4.33e-4,0.01905 0,0.03125 -0.03888,1.10362 0.536308,1.74634 1,2.15625 l 0,11.8125 c -0.791348,0.47636 -1.597068,0.90949 -2.3125,1.53125 -0.79384,0.687146 -0.890774,2.034721 -0.203455,2.828411 C 66.171364,39.09085 67.51896,39.187492 68.3125,38.5 69.118943,37.79915 70.107434,37.15509 70.84375,36.8125 71.529684,36.493275 71.999646,35.756577 72,35 l 0,-14 c 0.0015,-0.360684 -0.09682,-0.721283 -0.28125,-1.03125 0.03308,-0.0619 0.129384,-0.18193 0.15625,-0.25 0.06643,-0.16831 0.07836,-0.26819 0.09375,-0.34375 0.03077,-0.15111 0.02724,-0.19695 0.03125,-0.25 0.0046,-0.0606 -7.08e-4,-0.0944 0,-0.125 1.164233,-3e-5 2.562314,-2e-5 4,0 7.08e-4,0.0306 -0.0046,0.0644 0,0.125 0.004,0.053 4.69e-4,0.0989 0.03125,0.25 0.01539,0.0756 0.02729,0.17539 0.09375,0.34375 0.02688,0.0681 0.123155,0.18809 0.15625,0.25 C 76.096817,20.278717 75.998472,20.639316 76,21 l 0,14 c 3.54e-4,0.756577 0.470316,1.493275 1.15625,1.8125 1.327485,0.61764 2.958677,1.9421 4.125,3.3125 C 82.447573,41.4954 83,43.18814 83,43 l 0,22 c -1.386199,-3e-5 -2.816802,0 -4.1875,0 -1.047341,0.04888 -1.955743,1.046438 -1.906649,2.093769 C 76.954944,68.1411 77.952679,69.049303 79,69 l 4,0 0,2 c -2.721212,-8e-6 -5.481109,0 -8.1875,0 -1.047341,0.04888 -1.955743,1.046438 -1.906649,2.093769 C 72.954944,74.1411 73.952679,75.049303 75,75 l 8,0 0,2.78125 c -0.112583,0.1061 -0.394978,0.3101 -0.84375,0.5 C 81.219417,78.67775 79.674518,79 78,79 l -9,0 c -1.056625,-0.01494 -2.028484,0.943269 -2.028484,2 0,1.056731 0.971859,2.014943 2.028484,2 l 9,0 c 2.134232,0 4.10777,-0.34945 5.71875,-1.03125 0.80549,-0.341 1.507865,-0.7551 2.125,-1.375 C 86.460885,79.97375 87,79.0523 87,78 L 87,43 C 87,40.81529 85.784471,39.26078 84.3125,37.53125 83.128029,36.13953 81.625146,34.92278 80,33.9375 L 80,22.125 c 0.463703,-0.40994 1.038879,-1.05263 1,-2.15625 -3.52e-4,-0.0111 4.87e-4,-0.02025 0,-0.03125 C 80.95615,18.94196 80.377194,18.27337 79.90625,17.875 79.89227,17.77065 79.89815,17.7097 79.875,17.59375 79.79001,17.16809 79.658379,16.62602 79.21875,16.0625 78.779121,15.49898 77.876169,15.01977 77.03125,15 c -2.107127,1.03e-4 -4.255693,-1.13e-4 -6.0625,0 z" transform="translate(0,952.36218)" fill="#000000" fill-opacity="1" stroke="none" marker="none" visibility="visible" display="inline" overflow="visible"></path></g></svg>