<svg xmlns="http://www.w3.org/2000/svg" xmlns:xlink="http://www.w3.org/1999/xlink" width="100" height="100" viewBox="0 0 100 100"><g><g transform="translate(50 50) scale(0.69 0.69) rotate(0) translate(-50 -50)" style="fill:#000000"><svg fill="#000000" xmlns="http://www.w3.org/2000/svg" xmlns:xlink="http://www.w3.org/1999/xlink" version="1.1" x="0px" y="0px" viewBox="0 0 92 117.5" style="enable-background:new 0 0 92 117.5;" xml:space="preserve"><g><path d="M53.3,22.5c-1-1-2.4-1.5-3.8-1.5h-15c-5.2,0-9.5,4.3-9.5,9.5v37c0,5.2,4.3,9.5,9.5,9.5h24c5.2,0,9.5-4.3,9.5-9.5V38.7   c0-1.5-0.6-3-1.7-4L53.3,22.5z M65,67.5c0,3.6-2.9,6.5-6.5,6.5h-24c-3.6,0-6.5-2.9-6.5-6.5v-37c0-3.6,2.9-6.5,6.5-6.5h15h0.1v9   c0,3,2.5,5.5,5.5,5.5H65c0,0.1,0,0.2,0,0.2V67.5z"></path></g><g><path d="M39.1,57.9c-0.3-0.7-0.9-1.3-1.5-1.7c-0.4-0.2-0.8-0.3-1.2-0.4c-0.5-0.1-1.2-0.1-2.2-0.1h-3.8v9.8h3.2c1.1,0,1.8,0,2.3-0.1   c0.5-0.1,0.9-0.2,1.2-0.3c0.8-0.4,1.5-0.9,1.9-1.7c0.4-0.8,0.6-1.7,0.6-2.8C39.6,59.5,39.5,58.6,39.1,57.9z M36,62.4   c-0.3,0.4-0.8,0.5-1.6,0.5h-0.8v-4.8h0.9c0.7,0,1.3,0.2,1.6,0.6c0.3,0.4,0.5,1,0.5,1.9C36.5,61.4,36.3,62.1,36,62.4z"></path><path d="M49.7,57c-0.9-0.9-2-1.3-3.5-1.3c-1.5,0-2.7,0.4-3.5,1.3c-0.9,0.9-1.3,2.1-1.3,3.6c0,1.5,0.4,2.7,1.3,3.6   c0.9,0.9,2,1.3,3.5,1.3c1.5,0,2.7-0.4,3.5-1.3c0.9-0.9,1.3-2.1,1.3-3.6C51,59,50.5,57.8,49.7,57z M47.5,62.5   c-0.3,0.4-0.7,0.6-1.4,0.6c-0.6,0-1.1-0.2-1.4-0.6c-0.3-0.4-0.4-1.1-0.4-1.9c0-0.9,0.1-1.5,0.4-1.9c0.3-0.4,0.8-0.6,1.4-0.6   c0.6,0,1.1,0.2,1.4,0.6c0.3,0.4,0.4,1.1,0.4,1.9C48,61.4,47.8,62.1,47.5,62.5z"></path><path d="M59.6,61.6h2.8c-0.1,1.2-0.5,2.2-1.3,2.8c-0.8,0.7-1.8,1-3.1,1c-1.5,0-2.6-0.4-3.5-1.3c-0.9-0.9-1.3-2.1-1.3-3.6   c0-1.5,0.4-2.7,1.3-3.6c0.8-0.9,2-1.3,3.4-1.3c1.3,0,2.4,0.3,3.2,1c0.8,0.6,1.2,1.6,1.3,2.8h-2.8c0-0.5-0.2-0.8-0.5-1.1   C58.8,58.1,58.4,58,58,58c-0.6,0-1,0.2-1.3,0.6c-0.3,0.4-0.4,1.1-0.4,1.9c0,0.8,0.2,1.5,0.5,1.9c0.3,0.4,0.8,0.6,1.4,0.6   c0.5,0,0.8-0.1,1.1-0.4C59.4,62.4,59.6,62.1,59.6,61.6z"></path></g></svg></g></g></svg>