<svg xmlns="http://www.w3.org/2000/svg" width="48" height="56" viewBox="0 0 53 56">
  <g transform="translate(-20 -22)">
    <g>
      <path
        d="M53.3,22.5c-1-1-2.4-1.5-3.8-1.5h-15c-5.2,0-9.5,4.3-9.5,9.5v37c0,5.2,4.3,9.5,9.5,9.5h24c5.2,0,9.5-4.3,9.5-9.5V38.7   c0-1.5-0.6-3-1.7-4L53.3,22.5z M65,67.5c0,3.6-2.9,6.5-6.5,6.5h-24c-3.6,0-6.5-2.9-6.5-6.5v-37c0-3.6,2.9-6.5,6.5-6.5h15h0.1v9   c0,3,2.5,5.5,5.5,5.5H65c0,0.1,0,0.2,0,0.2V67.5z"/>
    </g>
    <polygon
      points="33.3,65.3 33.3,63 37.8,58.1 33.4,58.1 33.4,55.6 41.6,55.6 41.6,57.9 37,62.8 41.8,62.8 41.8,65.3 33.3,65.3 "/>
    <rect x="44.6" y="55.6"
      width="3.2" height="9.7"/>
    <path
      d="M59.4,57.4c-0.2-0.4-0.6-0.8-1-1.1c-0.3-0.2-0.8-0.4-1.3-0.5c-0.5-0.1-1.2-0.2-2.1-0.2h-4v9.7h3.1v-3H56  c1.2,0,2.1-0.3,2.8-0.9c0.6-0.6,1-1.4,1-2.5C59.7,58.4,59.6,57.8,59.4,57.4z M56.5,59.8c-0.2,0.1-0.7,0.2-1.3,0.2h-1v-2h1  c0.7,0,1.1,0.1,1.3,0.2c0.2,0.1,0.3,0.4,0.3,0.8C56.8,59.4,56.7,59.6,56.5,59.8z"/>
  </g>
</svg>
